<?xml version="1.0" encoding="utf-8"?>
<!-- Generator: Adobe Illustrator 25.0.1, SVG Export Plug-In . SVG Version: 6.00 Build 0)  -->
<svg version="1.1" xmlns="http://www.w3.org/2000/svg" xmlns:xlink="http://www.w3.org/1999/xlink" x="0px" y="0px"
	 viewBox="0 0 750 500" style="enable-background:new 0 0 750 500;" xml:space="preserve">
<style type="text/css">
	.st0{fill:#B2DDD4;}
	.st1{fill:#94D3C8;}
	.st2{fill:#82C5BE;}
	.st3{enable-background:new    ;}
	.st4{clip-path:url(#SVGID_2_);enable-background:new    ;}
	.st5{fill:#4A6C5F;}
	.st6{clip-path:url(#SVGID_4_);enable-background:new    ;}
	.st7{clip-path:url(#SVGID_6_);enable-background:new    ;}
	.st8{clip-path:url(#SVGID_8_);enable-background:new    ;}
	.st9{clip-path:url(#SVGID_10_);enable-background:new    ;}
	.st10{clip-path:url(#SVGID_12_);enable-background:new    ;}
	.st11{fill:#90B649;}
	.st12{fill:#89AA43;}
	.st13{fill:none;stroke:#494949;stroke-width:0.5125;stroke-miterlimit:10;}
	.st14{fill:#B3B3B3;}
	.st15{fill:#8E8E8E;}
	.st16{fill:#939393;}
	.st17{fill:#67B2AF;}
	.st18{fill:#F9F9F9;}
	.st19{fill:#2F5D5C;}
	.st20{fill:#8FD8D3;}
	.st21{opacity:0.5;}
	.st22{fill:#F1F1F1;}
	.st23{fill:#E6E6E6;}
	.st24{fill:#559994;}
	.st25{fill:none;stroke:#FFFFFF;stroke-width:0.2691;stroke-linecap:round;stroke-linejoin:round;stroke-miterlimit:10;}
	.st26{fill:none;stroke:#FFFFFF;stroke-width:0.2069;stroke-linecap:round;stroke-linejoin:round;stroke-miterlimit:10;}
	.st27{fill:none;stroke:#FFFFFF;stroke-width:0.182;stroke-linecap:round;stroke-linejoin:round;stroke-miterlimit:10;}
	.st28{fill:#FE4236;}
	.st29{fill:#AA895B;}
	.st30{fill:#CCCCCC;}
	.st31{fill:#DDDDDD;}
	.st32{opacity:0.8;}
	.st33{fill:#0092AF;}
	.st34{fill:#254C4A;}
	.st35{fill:#E02F2B;}
	.st36{fill:#FFD34E;}
	.st37{fill:#FFFFFF;}
	.st38{fill:#B5B5B5;}
	.st39{fill:#131313;}
	.st40{fill:#E8A944;}
	.st41{fill:#D3902F;}
	.st42{opacity:0.1;}
	.st43{fill:#774A2B;}
	.st44{fill:#3B8D3C;}
	.st45{opacity:0.3;}
	.st46{fill:#EDE7E9;}
	.st47{fill:#02618B;}
	.st48{fill:#E8E8E8;}
	.st49{fill:none;stroke:#FFFFFF;stroke-width:0.4772;stroke-linecap:round;stroke-linejoin:round;stroke-miterlimit:10;}
	.st50{fill:none;stroke:#FFFFFF;stroke-width:0.2959;stroke-linecap:round;stroke-linejoin:round;stroke-miterlimit:10;}
	.st51{font-family:'Metropolis-Regular';}
	.st52{font-size:8px;}
</style>
<g id="BACKGROUND">
	<rect class="st0" width="750" height="500"/>
	<g>
		<path class="st1" d="M175.58,322.45c-13.88,21.66-45.82,16.79-71.5,18.44c-32.51,2.09-67.33,26.41-65.2,58.93
			c0.89,13.51,8.05,25.96,17.28,35.86c27.23,29.22,70.31,37.68,110.24,36.94c39.93-0.73,79.68-9.01,119.54-6.42
			c38.5,2.5,75.98,15.08,114.56,15.76c24.33,0.43,49.5-4.26,69.45-18.19c6.76-4.72,12.98-10.51,20.73-13.34
			c9.12-3.33,19.17-2.13,28.81-1.04c29.11,3.28,58.38,5.17,87.67,5.66c22.59,0.38,47.01-0.69,64.76-14.66
			c15.27-12.01,22.64-31.37,27.59-50.16c11.44-43.4,11.52-95.22-20.37-126.81c-23.12-22.91-58.9-30.69-79.34-56.02
			c-14.53-18.01-19.03-42.24-32.02-61.39c-14.7-21.68-39.31-35.08-64.74-41.34c-25.43-6.26-51.95-6.11-78.14-5.62
			c-39.62,0.74-82.31,3.27-113.17,28.13c-38.13,30.72-45.68,81.16-96.59,94.86c-15.37,4.14-29.39,4.44-36.64,20.64
			C167.22,267.93,191.51,297.59,175.58,322.45z"/>
		<path class="st2" d="M192.96,345.96c-11.65,15.91-35.2,15.11-54.8,12.95c-19.6-2.16-43.38-2.22-54.21,14.26
			c-11.81,17.98,1.47,42.73,19.23,54.87c44.12,30.18,103.44,14.84,156.64,20.13c44.45,4.42,88.69,24.06,132.28,14.35
			c30.85-6.87,57.14-27.81,87.96-34.8c32.32-7.33,66.1,1.38,99.15-1.15c26.91-2.06,53.2-11.76,74.99-27.69
			c6.49-4.74,12.73-10.2,16.48-17.3c4.75-9,5.03-19.6,5.19-29.78c0.4-24.52,0.11-51.21-15.11-70.43
			c-14-17.69-37.2-24.67-56.24-36.77c-16.31-10.37-29.92-24.96-39.13-41.95c-14.01-25.83-20.35-59.57-46.68-72.63
			c-9.16-4.54-19.56-5.77-29.75-6.56c-44.52-3.46-92.99,1.41-126.76,30.62c-40,34.59-54.09,98.53-103.64,116.98
			c-12.97,4.83-27.03,5.8-40.37,9.47c-12.31,3.39-30.14,11.2-30.54,25.39C187.21,320.63,206.18,327.9,192.96,345.96z"/>
	</g>
</g>
<g id="OBJECTS">
	<g>
		<g>
			<g>
				<g class="st3">
					<defs>
						<path id="SVGID_1_" class="st3" d="M492.87,131.17l-0.11,22.45c0,0.28-0.05,0.56-0.15,0.84c-1.2,3.27-12.84,5.71-16.67,8.15
							c-6.1,3.88-9.49,9.15-9.51,14.39l0.11-22.45c0.02-5.24,3.41-10.51,9.51-14.39c3.83-2.43,15.47-4.88,16.67-8.15
							C492.82,131.73,492.87,131.45,492.87,131.17z"/>
					</defs>
					<use xlink:href="#SVGID_1_"  style="overflow:visible;fill:#4A6C5F;"/>
					<clipPath id="SVGID_2_">
						<use xlink:href="#SVGID_1_"  style="overflow:visible;"/>
					</clipPath>
					<g class="st4">
						<path class="st5" d="M492.87,131.17l-0.11,22.45c0,0.02,0,0.04,0,0.06l0.11-22.45C492.87,131.21,492.87,131.19,492.87,131.17"
							/>
						<path class="st5" d="M492.87,131.23l-0.11,22.45c0,0.14-0.02,0.27-0.05,0.41l0.11-22.45
							C492.85,131.51,492.86,131.37,492.87,131.23"/>
						<path class="st5" d="M492.82,131.64l-0.11,22.45c-0.03,0.12-0.06,0.25-0.11,0.37c0,0.01,0,0.01-0.01,0.02l0.11-22.45
							c0-0.01,0-0.01,0.01-0.02C492.76,131.89,492.79,131.77,492.82,131.64"/>
						<path class="st5" d="M492.71,132.03l-0.11,22.45c-0.04,0.1-0.08,0.2-0.14,0.29l0.11-22.45
							C492.62,132.23,492.67,132.13,492.71,132.03"/>
						<path class="st5" d="M492.57,132.32l-0.11,22.45c-0.06,0.11-0.14,0.22-0.22,0.33l0.11-22.45
							C492.43,132.54,492.5,132.43,492.57,132.32"/>
						<path class="st5" d="M492.34,132.65l-0.11,22.45c-0.11,0.14-0.24,0.28-0.39,0.42l0.11-22.45
							C492.1,132.94,492.23,132.8,492.34,132.65"/>
						<path class="st5" d="M491.95,133.08l-0.11,22.45c-0.26,0.25-0.58,0.49-0.94,0.73l0.11-22.45
							C491.37,133.56,491.69,133.32,491.95,133.08"/>
						<path class="st5" d="M491.01,133.8l-0.11,22.45c-3.66,2.42-11.87,4.39-14.97,6.36c-0.17,0.11-0.33,0.21-0.5,0.32l0.11-22.45
							c0.16-0.11,0.33-0.22,0.5-0.32C479.14,138.19,487.35,136.22,491.01,133.8"/>
						<path class="st5" d="M475.54,140.49l-0.11,22.45c-1.31,0.87-2.49,1.81-3.53,2.8l0.11-22.45
							C473.05,142.3,474.23,141.36,475.54,140.49"/>
						<path class="st5" d="M472.01,143.28l-0.11,22.45c-0.79,0.75-1.51,1.54-2.13,2.34l0.11-22.45
							C470.51,144.82,471.22,144.04,472.01,143.28"/>
						<path class="st5" d="M469.88,145.63l-0.11,22.45c-0.56,0.72-1.05,1.46-1.47,2.21l0.11-22.45
							C468.83,147.08,469.32,146.35,469.88,145.63"/>
						<path class="st5" d="M468.4,147.83l-0.11,22.45c-0.4,0.7-0.73,1.42-1,2.14l0.11-22.45
							C467.67,149.25,468.01,148.54,468.4,147.83"/>
						<path class="st5" d="M467.4,149.97l-0.11,22.45c-0.26,0.7-0.47,1.4-0.61,2.11l0.11-22.45
							C466.93,151.37,467.14,150.67,467.4,149.97"/>
						<path class="st5" d="M466.79,152.08l-0.11,22.45c-0.14,0.7-0.23,1.41-0.25,2.12l0.11-22.45
							C466.56,153.49,466.64,152.79,466.79,152.08"/>
						<path class="st5" d="M466.53,154.2l-0.11,22.45c0,0.12-0.01,0.23-0.01,0.35l0.11-22.45
							C466.53,154.44,466.53,154.32,466.53,154.2"/>
					</g>
				</g>
				<g class="st3">
					<defs>
						<path id="SVGID_3_" class="st3" d="M201.1,289.46l-0.11,22.45c0.03-6.73-5.17-13.46-5.13-20.25l0.11-22.45
							C195.94,276,201.13,282.74,201.1,289.46z"/>
					</defs>
					<use xlink:href="#SVGID_3_"  style="overflow:visible;fill:#4A6C5F;"/>
					<clipPath id="SVGID_4_">
						<use xlink:href="#SVGID_3_"  style="overflow:visible;"/>
					</clipPath>
					<g class="st6">
						<path class="st5" d="M201.1,289.46l-0.11,22.45c0.03-6.73-5.17-13.46-5.13-20.25l0.11-22.45
							C195.94,276,201.13,282.74,201.1,289.46"/>
					</g>
				</g>
				<g class="st3">
					<defs>
						<path id="SVGID_5_" class="st3" d="M476.32,172.24l-0.11,22.45c-0.02,4.71-6.66,8.94-12.11,12.76
							c-12.82,9-21.11,19.83-26.9,30.93c-8.11,15.54-11.58,31.78-12.48,47.99c-0.35,6.25-0.37,12.66-4.39,18.47
							c-5.85,8.46-19.91,15.32-20.15,24.42c0,0.06,0,0.12,0,0.18l0.11-22.45c0-0.06,0-0.12,0-0.18c0.24-9.1,14.29-15.96,20.15-24.42
							c4.02-5.81,4.04-12.23,4.39-18.47c0.9-16.22,4.37-32.46,12.48-47.99c5.79-11.1,14.08-21.93,26.9-30.93
							C469.66,181.18,476.3,176.95,476.32,172.24z"/>
					</defs>
					<use xlink:href="#SVGID_5_"  style="overflow:visible;fill:#4A6C5F;"/>
					<clipPath id="SVGID_6_">
						<use xlink:href="#SVGID_5_"  style="overflow:visible;"/>
					</clipPath>
					<g class="st7">
						<path class="st5" d="M476.32,172.24l-0.11,22.45c0,0.05,0,0.1,0,0.15l0.11-22.45C476.32,172.34,476.32,172.29,476.32,172.24"
							/>
						<path class="st5" d="M476.32,172.39l-0.11,22.45c-0.01,0.3-0.05,0.59-0.11,0.89l0.11-22.45
							C476.28,172.98,476.31,172.69,476.32,172.39"/>
						<path class="st5" d="M476.21,173.27l-0.11,22.45c-0.06,0.31-0.16,0.63-0.27,0.94l0.11-22.45
							C476.06,173.9,476.15,173.59,476.21,173.27"/>
						<path class="st5" d="M475.94,174.21l-0.11,22.45c-0.13,0.36-0.3,0.71-0.5,1.06l0.11-22.45
							C475.64,174.92,475.81,174.57,475.94,174.21"/>
						<path class="st5" d="M475.44,175.27l-0.11,22.45c-0.25,0.44-0.55,0.89-0.89,1.32l0.11-22.45
							C474.89,176.15,475.19,175.71,475.44,175.27"/>
						<path class="st5" d="M474.55,176.59l-0.11,22.45c-0.52,0.67-1.13,1.32-1.81,1.97l0.11-22.45
							C473.42,177.91,474.03,177.25,474.55,176.59"/>
						<path class="st5" d="M472.74,178.55L472.63,201c-2.4,2.27-5.63,4.42-8.53,6.45c-3.62,2.54-6.88,5.23-9.83,8.03l0.11-22.45
							c2.94-2.8,6.21-5.49,9.83-8.03C467.11,182.97,470.34,180.83,472.74,178.55"/>
						<path class="st5" d="M454.38,193.04l-0.11,22.45c-3.1,2.95-5.86,6.03-8.31,9.19l0.11-22.45
							C448.53,199.06,451.28,195.99,454.38,193.04"/>
						<path class="st5" d="M446.07,202.22l-0.11,22.45c-2.77,3.55-5.15,7.21-7.24,10.92l0.11-22.45
							C440.92,209.43,443.3,205.78,446.07,202.22"/>
						<path class="st5" d="M438.83,213.14l-0.11,22.45c-0.52,0.93-1.03,1.86-1.52,2.8c-1.96,3.77-3.66,7.57-5.11,11.41l0.11-22.45
							c1.45-3.84,3.14-7.64,5.11-11.41C437.8,215,438.3,214.07,438.83,213.14"/>
						<path class="st5" d="M432.2,227.35l-0.11,22.45c-2.13,5.65-3.74,11.37-4.92,17.12l0.11-22.45
							C428.46,238.72,430.07,233,432.2,227.35"/>
						<path class="st5" d="M427.29,244.47l-0.11,22.45c-1.32,6.46-2.09,12.96-2.46,19.46c-0.19,3.39-0.28,6.83-0.97,10.19
							l0.11-22.45c0.69-3.36,0.78-6.8,0.97-10.19C425.19,257.43,425.97,250.93,427.29,244.47"/>
						<path class="st5" d="M423.86,274.12l-0.11,22.45c-0.26,1.29-0.61,2.56-1.09,3.82l0.11-22.45
							C423.25,276.69,423.6,275.41,423.86,274.12"/>
						<path class="st5" d="M422.77,277.95l-0.11,22.45c-0.37,0.97-0.81,1.93-1.34,2.87l0.11-22.45
							C421.97,279.87,422.41,278.92,422.77,277.95"/>
						<path class="st5" d="M421.44,280.82l-0.11,22.45c-0.3,0.53-0.63,1.06-0.99,1.59c-0.24,0.35-0.5,0.7-0.77,1.05l0.11-22.45
							c0.27-0.35,0.53-0.7,0.77-1.05C420.8,281.88,421.13,281.35,421.44,280.82"/>
						<path class="st5" d="M419.67,283.45l-0.11,22.45c-1.14,1.46-2.5,2.88-3.97,4.27l0.11-22.45
							C417.17,286.33,418.53,284.91,419.67,283.45"/>
						<path class="st5" d="M415.7,287.72l-0.11,22.45c-2.73,2.59-5.83,5.1-8.53,7.66l0.11-22.45
							C409.87,292.82,412.97,290.31,415.7,287.72"/>
						<path class="st5" d="M407.18,295.39l-0.11,22.45c-1.41,1.34-2.71,2.69-3.8,4.08l0.11-22.45
							C404.46,298.08,405.77,296.73,407.18,295.39"/>
						<path class="st5" d="M403.38,299.47l-0.11,22.45c-0.6,0.76-1.13,1.54-1.57,2.33l0.11-22.45
							C402.25,301.01,402.78,300.23,403.38,299.47"/>
						<path class="st5" d="M401.81,301.8l-0.11,22.45c-0.33,0.59-0.62,1.19-0.85,1.8l0.11-22.45
							C401.19,302.99,401.47,302.39,401.81,301.8"/>
						<path class="st5" d="M400.96,303.6l-0.11,22.45c-0.2,0.53-0.36,1.07-0.47,1.61l0.11-22.45
							C400.6,304.66,400.75,304.13,400.96,303.6"/>
						<path class="st5" d="M400.48,305.21l-0.11,22.45c-0.1,0.51-0.17,1.02-0.18,1.54l0.11-22.45
							C400.32,306.23,400.38,305.72,400.48,305.21"/>
						<path class="st5" d="M400.3,306.75l-0.11,22.45c0,0.02,0,0.05,0,0.07c0,0.06,0,0.12,0,0.18l0.11-22.45c0-0.06,0-0.12,0-0.18
							C400.3,306.8,400.3,306.78,400.3,306.75"/>
					</g>
				</g>
				<g class="st3">
					<defs>
						<path id="SVGID_7_" class="st3" d="M401.68,315.72l-0.11,22.45c0,0.47-0.04,0.93-0.13,1.4c-1.48,7.86-15.75,12.82-21.23,20.08
							c-4.47,5.93-4.04,14.06-14.19,16.96c-4.95,1.42-11.82,1.28-14.72,3.96c-1.85,1.7-1.24,3.88-1.51,5.88
							c-0.72,5.34-7.86,9.55-12.31,14.26c-4.45,4.71-6.17,9.89-6.2,15.21l0.11-22.45c0.03-5.32,1.74-10.5,6.2-15.21
							c4.46-4.71,11.59-8.92,12.31-14.26c0.27-2-0.34-4.17,1.51-5.88c2.91-2.68,9.77-2.54,14.72-3.96
							c10.15-2.91,9.72-11.04,14.19-16.96c5.48-7.26,19.75-12.22,21.23-20.08C401.64,316.65,401.68,316.18,401.68,315.72z"/>
					</defs>
					<use xlink:href="#SVGID_7_"  style="overflow:visible;fill:#4A6C5F;"/>
					<clipPath id="SVGID_8_">
						<use xlink:href="#SVGID_7_"  style="overflow:visible;"/>
					</clipPath>
					<g class="st8">
						<path class="st5" d="M401.68,315.72l-0.11,22.45c0,0.08,0,0.16,0,0.24l0.11-22.45C401.68,315.88,401.68,315.8,401.68,315.72"
							/>
						<path class="st5" d="M401.67,315.96l-0.11,22.45c-0.01,0.39-0.05,0.77-0.12,1.16c-0.01,0.04-0.01,0.07-0.02,0.11l0.11-22.45
							c0.01-0.04,0.01-0.07,0.02-0.11C401.62,316.73,401.66,316.34,401.67,315.96"/>
						<path class="st5" d="M401.53,317.23l-0.11,22.45c-0.08,0.41-0.2,0.8-0.35,1.2l0.11-22.45
							C401.33,318.03,401.45,317.63,401.53,317.23"/>
						<path class="st5" d="M401.18,318.42l-0.11,22.45c-0.16,0.43-0.37,0.86-0.6,1.28l0.11-22.45
							C400.81,319.28,401.02,318.86,401.18,318.42"/>
						<path class="st5" d="M400.58,319.7l-0.11,22.45c-0.29,0.51-0.62,1-1,1.48l0.11-22.45C399.95,320.7,400.29,320.2,400.58,319.7"
							/>
						<path class="st5" d="M399.58,321.18l-0.11,22.45c-0.55,0.7-1.18,1.38-1.89,2.05l0.11-22.45
							C398.39,322.56,399.03,321.88,399.58,321.18"/>
						<path class="st5" d="M397.69,323.23l-0.11,22.45c-4.23,4.01-10.89,7.49-15.22,11.6l0.11-22.45
							C386.8,330.72,393.46,327.23,397.69,323.23"/>
						<path class="st5" d="M382.47,334.83l-0.11,22.45c-0.74,0.7-1.42,1.42-2,2.17l0.11-22.45
							C381.05,336.26,381.73,335.53,382.47,334.83"/>
						<path class="st5" d="M380.47,337l-0.11,22.45c-0.05,0.07-0.1,0.13-0.15,0.2c-0.5,0.67-0.95,1.37-1.35,2.08l0.11-22.45
							c0.4-0.71,0.84-1.41,1.35-2.08C380.37,337.13,380.42,337.07,380.47,337"/>
						<path class="st5" d="M378.97,339.28l-0.11,22.45c-1.42,2.52-2.34,5.26-3.74,7.75l0.11-22.45
							C376.63,344.54,377.55,341.8,378.97,339.28"/>
						<path class="st5" d="M375.23,347.03l-0.11,22.45c-0.42,0.75-0.89,1.48-1.43,2.17l0.11-22.45
							C374.35,348.51,374.81,347.78,375.23,347.03"/>
						<path class="st5" d="M373.81,349.2l-0.11,22.45c-0.41,0.53-0.87,1.04-1.37,1.52l0.11-22.45
							C372.94,350.24,373.4,349.73,373.81,349.2"/>
						<path class="st5" d="M372.44,350.72l-0.11,22.45c-0.53,0.51-1.12,0.98-1.79,1.42l0.11-22.45
							C371.31,351.7,371.9,351.23,372.44,350.72"/>
						<path class="st5" d="M370.65,352.14l-0.11,22.45c-1.23,0.81-2.7,1.5-4.52,2.02c-0.22,0.06-0.45,0.12-0.68,0.18l0.11-22.45
							c0.23-0.06,0.46-0.12,0.68-0.18C367.94,353.64,369.42,352.96,370.65,352.14"/>
						<path class="st5" d="M365.45,354.35l-0.11,22.45c-3.1,0.78-6.8,1.06-9.81,1.82l0.11-22.45
							C358.64,355.41,362.35,355.12,365.45,354.35"/>
						<path class="st5" d="M355.64,356.16l-0.11,22.45c-1.36,0.34-2.57,0.78-3.52,1.4l0.11-22.45
							C353.07,356.94,354.28,356.5,355.64,356.16"/>
						<path class="st5" d="M352.12,357.56l-0.11,22.45c-0.26,0.17-0.5,0.35-0.72,0.56c-0.02,0.02-0.03,0.03-0.05,0.05l0.11-22.45
							c0.02-0.02,0.03-0.03,0.05-0.05C351.62,357.92,351.86,357.74,352.12,357.56"/>
						<path class="st5" d="M351.35,358.17l-0.11,22.45c-0.16,0.15-0.3,0.31-0.43,0.47l0.11-22.45
							C351.05,358.48,351.19,358.32,351.35,358.17"/>
						<path class="st5" d="M350.92,358.64l-0.11,22.45c-0.12,0.16-0.23,0.32-0.32,0.48l0.11-22.45
							C350.69,358.96,350.8,358.8,350.92,358.64"/>
						<path class="st5" d="M350.6,359.12l-0.11,22.45c-0.1,0.18-0.18,0.36-0.25,0.55l0.11-22.45
							C350.42,359.48,350.5,359.3,350.6,359.12"/>
						<path class="st5" d="M350.35,359.67l-0.11,22.45c-0.09,0.23-0.15,0.47-0.2,0.71l0.11-22.45
							C350.2,360.14,350.26,359.9,350.35,359.67"/>
						<path class="st5" d="M350.15,360.38l-0.11,22.45c-0.1,0.47-0.13,0.95-0.14,1.43l0.11-22.45
							C350.02,361.33,350.05,360.85,350.15,360.38"/>
						<path class="st5" d="M350,361.81l-0.11,22.45c-0.01,0.38-0.01,0.77-0.03,1.15l0.11-22.45
							C349.99,362.58,349.99,362.19,350,361.81"/>
						<path class="st5" d="M349.98,362.96l-0.11,22.45c-0.01,0.35-0.03,0.7-0.08,1.04c-0.02,0.15-0.05,0.31-0.08,0.46l0.11-22.45
							c0.03-0.15,0.06-0.31,0.08-0.46C349.94,363.65,349.96,363.31,349.98,362.96"/>
						<path class="st5" d="M349.82,364.46l-0.11,22.45c-0.08,0.39-0.19,0.77-0.33,1.15l0.11-22.45
							C349.63,365.23,349.74,364.84,349.82,364.46"/>
						<path class="st5" d="M349.48,365.6l-0.11,22.45c-0.17,0.44-0.37,0.87-0.61,1.3l0.11-22.45
							C349.11,366.47,349.32,366.04,349.48,365.6"/>
						<path class="st5" d="M348.87,366.9l-0.11,22.45c-0.31,0.55-0.68,1.09-1.1,1.63l0.11-22.45
							C348.19,367.99,348.56,367.45,348.87,366.9"/>
						<path class="st5" d="M347.78,368.52l-0.11,22.45c-0.75,0.96-1.64,1.9-2.61,2.82l0.11-22.45
							C346.13,370.42,347.03,369.49,347.78,368.52"/>
						<path class="st5" d="M345.16,371.34l-0.11,22.45c-1.99,1.89-4.29,3.72-6.28,5.62l0.11-22.45
							C340.87,375.07,343.18,373.23,345.16,371.34"/>
						<path class="st5" d="M338.88,376.96l-0.11,22.45c-0.45,0.43-0.88,0.86-1.3,1.29c-0.58,0.62-1.12,1.24-1.61,1.87l0.11-22.45
							c0.49-0.63,1.03-1.26,1.61-1.87C338,377.82,338.43,377.39,338.88,376.96"/>
						<path class="st5" d="M335.97,380.13l-0.11,22.45c-0.71,0.92-1.33,1.85-1.87,2.8l0.11-22.45
							C334.64,381.98,335.26,381.05,335.97,380.13"/>
						<path class="st5" d="M334.11,382.92L334,405.37c-0.54,0.95-0.99,1.92-1.35,2.9l0.11-22.45
							C333.12,384.84,333.57,383.88,334.11,382.92"/>
						<path class="st5" d="M332.75,385.82l-0.11,22.45c-0.4,1.05-0.7,2.11-0.92,3.18l0.11-22.45
							C332.05,387.93,332.36,386.87,332.75,385.82"/>
						<path class="st5" d="M331.83,389l-0.11,22.45c-0.25,1.24-0.39,2.5-0.44,3.77l0.11-22.45
							C331.44,391.51,331.58,390.25,331.83,389"/>
						<path class="st5" d="M331.4,392.77l-0.11,22.45c-0.01,0.23-0.01,0.46-0.01,0.69l0.11-22.45
							C331.39,393.23,331.39,393,331.4,392.77"/>
					</g>
				</g>
				<g class="st3">
					<defs>
						<path id="SVGID_9_" class="st3" d="M299.94,408.62l-0.11,22.45c0.05-10.08-7.29-20.51-22.37-25.75c-8.62-3-19-4.1-27.46-7.23
							c-12.77-4.73-19.2-13.22-24.93-21.21c-6.85-9.56-13.7-19.12-20.55-28.67c-2.51-3.5-5.01-6.99-7.52-10.49
							c-1.44-2.01-2.9-4.06-3.3-6.22c-0.08-0.43-0.11-0.87-0.11-1.3l0.11-22.45c0,0.43,0.03,0.86,0.11,1.3
							c0.4,2.16,1.85,4.21,3.3,6.22c2.51,3.5,5.01,6.99,7.52,10.49c6.85,9.56,13.7,19.12,20.55,28.67
							c5.73,7.99,12.16,16.49,24.93,21.21c8.47,3.13,18.84,4.23,27.46,7.23C292.65,388.11,299.99,398.55,299.94,408.62z"/>
					</defs>
					<use xlink:href="#SVGID_9_"  style="overflow:visible;fill:#4A6C5F;"/>
					<clipPath id="SVGID_10_">
						<use xlink:href="#SVGID_9_"  style="overflow:visible;"/>
					</clipPath>
					<g class="st9">
						<path class="st5" d="M299.94,408.62l-0.11,22.45c0.05-9.58-6.58-19.48-20.2-24.94l0.11-22.45
							C293.36,389.14,299.99,399.04,299.94,408.62"/>
						<path class="st5" d="M279.75,383.68l-0.11,22.45c-0.71-0.28-1.43-0.55-2.18-0.81c-0.94-0.33-1.9-0.63-2.88-0.92l0.11-22.45
							c0.98,0.29,1.94,0.59,2.88,0.92C278.31,383.13,279.04,383.4,279.75,383.68"/>
						<path class="st5" d="M274.69,381.95l-0.11,22.45c-6.68-1.96-14.11-3.11-20.78-5.06l0.11-22.45
							C260.58,378.84,268.01,379.99,274.69,381.95"/>
						<path class="st5" d="M253.91,376.89l-0.11,22.45c-1.3-0.38-2.57-0.79-3.8-1.25c-0.41-0.15-0.82-0.31-1.21-0.47l0.11-22.45
							c0.4,0.16,0.8,0.32,1.21,0.47C251.34,376.09,252.61,376.51,253.91,376.89"/>
						<path class="st5" d="M248.89,375.17l-0.11,22.45c-11.97-4.8-18.17-13.01-23.71-20.75c-6.85-9.56-13.7-19.12-20.55-28.67
							c-2.51-3.5-5.01-6.99-7.52-10.49c-1.44-2.01-2.9-4.06-3.3-6.22c-0.08-0.43-0.11-0.87-0.11-1.3l0.11-22.45
							c0,0.43,0.03,0.86,0.11,1.3c0.4,2.16,1.85,4.21,3.3,6.22c2.51,3.5,5.01,6.99,7.52,10.49c6.85,9.56,13.7,19.12,20.55,28.67
							C230.72,362.16,236.93,370.37,248.89,375.17"/>
					</g>
				</g>
				<g class="st3">
					<defs>
						<path id="SVGID_11_" class="st3" d="M340.3,422.31l-0.11,22.45c-0.01,1.94-0.77,3.77-2.85,5.33
							c-3.63,2.71-9.9,3.45-16.13,3.47c-1.69,0-3.38-0.04-5.01-0.12c-3.28-0.16-6.65-0.39-9.53-1.29
							c-6.47-2.03-7.96-6.14-7.94-10.55l0.11-22.45c-0.02,4.41,1.47,8.52,7.94,10.55c2.89,0.91,6.25,1.14,9.53,1.29
							c1.63,0.08,3.32,0.13,5.01,0.12c6.23-0.02,12.5-0.76,16.13-3.47C339.53,426.09,340.29,424.25,340.3,422.31z"/>
					</defs>
					<use xlink:href="#SVGID_11_"  style="overflow:visible;fill:#4A6C5F;"/>
					<clipPath id="SVGID_12_">
						<use xlink:href="#SVGID_11_"  style="overflow:visible;"/>
					</clipPath>
					<g class="st10">
						<path class="st5" d="M340.3,422.31l-0.11,22.45c0,0.07,0,0.13,0,0.2l0.11-22.45C340.29,422.45,340.3,422.38,340.3,422.31"/>
						<path class="st5" d="M340.29,422.51l-0.11,22.45c-0.01,0.38-0.05,0.75-0.13,1.11l0.11-22.45
							C340.24,423.26,340.28,422.89,340.29,422.51"/>
						<path class="st5" d="M340.16,423.62l-0.11,22.45c-0.06,0.31-0.15,0.62-0.26,0.92l0.11-22.45
							C340.01,424.24,340.1,423.94,340.16,423.62"/>
						<path class="st5" d="M339.9,424.54l-0.11,22.45c-0.1,0.28-0.23,0.55-0.38,0.82l0.11-22.45
							C339.67,425.1,339.8,424.82,339.9,424.54"/>
						<path class="st5" d="M339.52,425.37l-0.11,22.45c-0.15,0.27-0.32,0.53-0.52,0.78l0.11-22.45
							C339.19,425.89,339.37,425.63,339.52,425.37"/>
						<path class="st5" d="M338.99,426.15l-0.11,22.45c-0.22,0.28-0.46,0.55-0.74,0.81l0.11-22.45
							C338.53,426.69,338.78,426.42,338.99,426.15"/>
						<path class="st5" d="M338.26,426.96l-0.11,22.45c-0.25,0.23-0.52,0.46-0.81,0.68c-0.15,0.11-0.3,0.22-0.45,0.32l0.11-22.45
							c0.15-0.1,0.31-0.21,0.45-0.32C337.74,427.42,338.01,427.19,338.26,426.96"/>
						<path class="st5" d="M336.99,427.96l-0.11,22.45c-1.38,0.92-3.09,1.59-5,2.07l0.11-22.45
							C333.9,429.54,335.61,428.87,336.99,427.96"/>
						<path class="st5" d="M331.99,430.03l-0.11,22.45c-0.97,0.24-1.99,0.44-3.04,0.59l0.11-22.45
							C330,430.46,331.02,430.27,331.99,430.03"/>
						<path class="st5" d="M328.95,430.62l-0.11,22.45c-1,0.15-2.04,0.25-3.1,0.33l0.11-22.45
							C326.9,430.87,327.94,430.76,328.95,430.62"/>
						<path class="st5" d="M325.85,430.95l-0.11,22.45c-1.23,0.09-2.48,0.14-3.73,0.16l0.11-22.45
							C323.37,431.09,324.62,431.04,325.85,430.95"/>
						<path class="st5" d="M322.12,431.1l-0.11,22.45c-0.27,0-0.54,0.01-0.81,0.01c-1.46,0-2.92-0.03-4.34-0.09l0.11-22.45
							c1.42,0.06,2.88,0.1,4.34,0.09C321.58,431.11,321.85,431.11,322.12,431.1"/>
						<path class="st5" d="M316.97,431.02l-0.11,22.45c-0.22-0.01-0.45-0.02-0.67-0.03c-1.33-0.06-2.67-0.14-3.99-0.27l0.11-22.45
							c1.32,0.13,2.66,0.2,3.99,0.27C316.52,431,316.74,431.01,316.97,431.02"/>
						<path class="st5" d="M312.32,430.72l-0.11,22.45c-0.73-0.07-1.45-0.16-2.16-0.27l0.11-22.45
							C310.87,430.56,311.59,430.65,312.32,430.72"/>
						<path class="st5" d="M310.16,430.46l-0.11,22.45c-0.55-0.09-1.1-0.18-1.63-0.3l0.11-22.45
							C309.06,430.27,309.61,430.37,310.16,430.46"/>
						<path class="st5" d="M308.53,430.15l-0.11,22.45c-0.49-0.11-0.97-0.23-1.44-0.36l0.11-22.45
							C307.56,429.93,308.04,430.05,308.53,430.15"/>
						<path class="st5" d="M307.09,429.79l-0.11,22.45c-0.11-0.03-0.21-0.06-0.32-0.1c-0.46-0.14-0.9-0.3-1.31-0.47l0.11-22.45
							c0.41,0.17,0.85,0.32,1.31,0.47C306.88,429.73,306.98,429.76,307.09,429.79"/>
						<path class="st5" d="M305.46,429.23l-0.11,22.45c-5.36-2.15-6.65-5.99-6.63-10.08l0.11-22.45
							C298.81,423.24,300.1,427.07,305.46,429.23"/>
					</g>
				</g>
			</g>
			<g>
				<path class="st11" d="M415.11,98.81c10.45-0.03,22.93,6.22,29.12,9.5c10.56,5.6,22.63,8.36,34.06,13.07
					c5.41,2.23,15.87,6.43,14.32,10.63c-1.2,3.27-12.84,5.71-16.67,8.15c-9.8,6.23-12.59,16.04-5.72,23.56
					c2.03,2.21,4.79,4.28,5.68,6.71c1.99,5.44-5.65,10.26-11.79,14.57c-12.82,9-21.11,19.83-26.9,30.93
					c-8.11,15.54-11.58,31.78-12.48,47.99c-0.35,6.25-0.37,12.66-4.39,18.47c-5.85,8.46-19.91,15.32-20.15,24.42
					c-0.09,3.44,1.9,6.87,1.25,10.29c-1.48,7.87-15.75,12.82-21.23,20.08c-4.47,5.93-4.04,14.06-14.19,16.96
					c-4.95,1.42-11.82,1.28-14.72,3.96c-1.85,1.7-1.24,3.88-1.51,5.88c-0.72,5.34-7.86,9.55-12.31,14.26
					c-10.38,10.98-5.91,24.47,0.24,36.47c2.21,4.31,4.39,9.36-0.38,12.92c-3.63,2.71-9.9,3.45-16.13,3.47
					c-1.69,0-3.38-0.04-5.01-0.12c-3.28-0.16-6.65-0.39-9.53-1.29c-10.21-3.21-8.02-11.6-7.05-18.17
					c1.61-10.92-5.61-22.91-22.15-28.66c-8.62-3-19-4.1-27.46-7.23c-12.77-4.73-19.2-13.22-24.93-21.21
					c-6.85-9.56-13.7-19.12-20.55-28.67c-2.51-3.5-5.01-6.99-7.52-10.49c-1.44-2.01-2.9-4.06-3.3-6.22
					c-1.03-5.64,5.25-10.83,6.85-16.42c2.38-8.31-5.75-16.64-4.58-25.04c0.99-7.17,8.55-13.42,15.66-19.36
					c18.45-15.43,35.52-31.39,51.11-47.8c11.32-11.91,21.98-24.17,37.1-34.63c8.75-6.06,19.18-11.69,23.68-19.1
					c3.37-5.55,3.2-11.83,8.52-16.87c11.62-11.02,40.59-9.77,59.95-16.45c2.86-0.99,5.59-2.21,7.23-3.86
					c1.95-1.97,2.18-4.38,4.12-6.35C406.44,100.02,410.58,98.83,415.11,98.81z"/>
			</g>
		</g>
		<path class="st12" d="M390.15,126.92c-6.97,2.75-14.89,1.63-22.12,3.59c-13.91,3.77-22.14,17.54-31.05,28.87
			c-17.23,21.92-41.02,37.5-62.21,55.62c-14.78,12.63-28.37,26.58-41.94,40.51c-6.63,6.81-13.41,13.84-17.02,22.63
			c-3.26,7.94-3.68,16.72-4.05,25.3c-0.28,6.47-0.53,13.14,1.77,19.19c2.62,6.87,8.2,12.1,12.75,17.87
			c6.12,7.77,10.84,17.13,19.27,22.32c7.17,4.42,15.94,5.13,23.96,7.71c13.75,4.42,25.49,14.77,31.59,27.86
			c4.63,9.94,7.26,22.57,17.31,26.94c2.37,1.03,5.39,1.36,7.3-0.38c1.28-1.17,1.73-2.98,2.04-4.69c1.35-7.39,1.4-15.01,0.14-22.42
			c-1.28-7.51-3.8-15.71-0.09-22.37c1.94-3.48,5.31-5.92,7.78-9.04c3.73-4.73,5.27-10.84,8.72-15.78
			c9.86-14.12,32.37-15.13,41.31-29.86c4.69-7.73,4.44-17.54,8.25-25.75c4.64-9.98,14.77-16.55,19.5-26.49
			c3.88-8.18,3.65-17.61,3.89-26.66c0.56-21.11,4.82-43.5,19.4-58.78c4.31-4.52,9.51-8.42,12.27-14.03
			c3.03-6.16,2.73-13.7,6.43-19.49c4.36-6.8,14.06-11.3,13.33-19.34c-0.39-4.27-3.83-7.56-7.26-10.13
			c-9.72-7.26-26.29-16.12-38.96-14.07C409.39,108.17,401.95,122.26,390.15,126.92z"/>
	</g>
	<g>
		<g>
			<line class="st13" x1="292.71" y1="170.1" x2="338.82" y2="154.08"/>
			<g>
				<path class="st13" d="M327.79,157.83v14.88c0,1.15-0.93,2.08-2.08,2.08h-2.47"/>
				<g>
					<path class="st14" d="M329.74,158.19c0,1.05-0.85,1.9-1.9,1.9c-1.05,0-1.9-0.85-1.9-1.9s0.85-1.9,1.9-1.9
						C328.89,156.29,329.74,157.14,329.74,158.19z"/>
					<path class="st15" d="M329.04,158.19c0,0.66-0.53,1.19-1.19,1.19c-0.66,0-1.19-0.53-1.19-1.19c0-0.66,0.53-1.19,1.19-1.19
						C328.5,157,329.04,157.53,329.04,158.19z"/>
				</g>
				<g>
					<rect x="322.81" y="174" class="st16" width="0.57" height="2.5"/>
					<path class="st17" d="M328.78,193.96h-11.24c-2.19-2.61-2.83-5.24-2.75-7.54c0.15-4.23,2.75-7.37,2.75-7.37h10.86
						c1.86,2.69,2.55,5.2,2.64,7.37C331.23,190.95,328.78,193.96,328.78,193.96z"/>
					<rect x="317.54" y="193.96" class="st14" width="11.39" height="1.2"/>
					<rect x="322.2" y="176.91" class="st16" width="1.78" height="1.11"/>
					<rect x="317.54" y="177.84" class="st14" width="10.88" height="1.2"/>
					<path class="st14" d="M323.6,177.33h-0.96c-0.88,0-1.59-0.71-1.59-1.58v-0.06h4.13v0.06
						C325.19,176.62,324.48,177.33,323.6,177.33z"/>
					<path class="st18" d="M328.78,193.96h-11.24c-2.19-2.61-2.83-5.24-2.75-7.54h16.25C331.23,190.95,328.78,193.96,328.78,193.96z
						"/>
					<g>
						<rect x="318.21" y="179.91" class="st19" width="9.58" height="12.9"/>
						<rect x="319.53" y="181.05" class="st20" width="2.68" height="6.77"/>
						<rect x="323.85" y="181.05" class="st20" width="2.68" height="6.77"/>
						<rect x="322.92" y="179.91" class="st21" width="0.32" height="13.02"/>
					</g>
				</g>
			</g>
			<g>
				<path class="st13" d="M304.12,165.84v14.88c0,1.15-0.93,2.08-2.08,2.08h-2.47"/>
				<g>
					<path class="st14" d="M306.07,166.2c0,1.05-0.85,1.9-1.9,1.9s-1.9-0.85-1.9-1.9s0.85-1.9,1.9-1.9S306.07,165.15,306.07,166.2z"
						/>
					<path class="st15" d="M305.37,166.2c0,0.66-0.53,1.19-1.19,1.19c-0.66,0-1.19-0.53-1.19-1.19c0-0.66,0.53-1.19,1.19-1.19
						C304.83,165.01,305.37,165.54,305.37,166.2z"/>
				</g>
				<g>
					<rect x="299.14" y="182.01" class="st16" width="0.57" height="2.5"/>
					<path class="st17" d="M305.11,201.97h-11.24c-2.19-2.61-2.83-5.24-2.75-7.54c0.15-4.23,2.75-7.37,2.75-7.37h10.86
						c1.86,2.69,2.55,5.2,2.64,7.37C307.56,198.96,305.11,201.97,305.11,201.97z"/>
					<rect x="293.87" y="201.97" class="st14" width="11.39" height="1.2"/>
					<rect x="298.54" y="184.92" class="st16" width="1.78" height="1.11"/>
					<rect x="293.87" y="185.85" class="st14" width="10.88" height="1.2"/>
					<path class="st14" d="M299.93,185.34h-0.96c-0.88,0-1.58-0.71-1.58-1.59v-0.06h4.13v0.06
						C301.52,184.63,300.81,185.34,299.93,185.34z"/>
					<path class="st18" d="M305.11,201.97h-11.24c-2.19-2.61-2.83-5.24-2.75-7.54h16.25C307.56,198.96,305.11,201.97,305.11,201.97z
						"/>
					<g>
						<rect x="294.54" y="187.92" class="st19" width="9.58" height="12.9"/>
						<rect x="295.86" y="189.06" class="st20" width="2.68" height="6.77"/>
						<rect x="300.18" y="189.06" class="st20" width="2.68" height="6.77"/>
						<rect x="299.25" y="187.92" class="st21" width="0.32" height="13.02"/>
					</g>
				</g>
			</g>
		</g>
		<ellipse class="st21" cx="299.26" cy="203.1" rx="12.48" ry="2.28"/>
		<ellipse class="st21" cx="323.98" cy="195.16" rx="12.48" ry="2.28"/>
	</g>
	<g>
		<ellipse class="st21" cx="337.16" cy="249.47" rx="68.73" ry="9.11"/>
		<g>
			<g>
				<path class="st22" d="M322.34,227.9v21.84h6.88v-6.34c0-4.36,3.53-7.89,7.89-7.89s7.89,3.53,7.89,7.89v6.34h6.88V227.9H322.34z"
					/>
				<rect x="321.65" y="224.44" class="st23" width="30.91" height="3.94"/>
				<rect x="327.94" y="217.58" class="st22" width="18.32" height="6.86"/>
				<rect x="322.34" y="230.85" class="st23" width="29.53" height="3.67"/>
				<rect x="329.45" y="218.44" class="st23" width="15.3" height="5.07"/>
				<g>
					<rect x="324.83" y="215.01" class="st24" width="23.51" height="2.51"/>
					<rect x="328.88" y="209.22" class="st19" width="16.56" height="2.51"/>
					<path class="st17" d="M322.23,214.41c0,0,5.19-1.07,6.62-2.68h16.56c0,0,2.33,2.33,6.44,2.68
						C351.86,214.41,336.82,218.26,322.23,214.41z"/>
					<path class="st25" d="M351.97,214.41c0,0-15.03,3.85-29.62,0"/>
				</g>
			</g>
			<g>
				<path class="st22" d="M351.89,232.94v16.79h5.29v-4.88c0-3.35,2.71-6.06,6.06-6.06s6.06,2.72,6.06,6.06v4.88h5.29v-16.79H351.89
					z"/>
				<rect x="351.36" y="230.28" class="st23" width="23.76" height="3.03"/>
				<rect x="356.2" y="225.01" class="st22" width="14.08" height="5.28"/>
				<rect x="351.89" y="235.22" class="st23" width="22.71" height="2.82"/>
				<rect x="357.36" y="225.67" class="st23" width="11.77" height="3.9"/>
				<g>
					<rect x="353.81" y="223.04" class="st24" width="18.07" height="1.93"/>
					<rect x="356.92" y="218.59" class="st19" width="12.73" height="1.93"/>
					<path class="st17" d="M351.81,222.58c0,0,3.99-0.83,5.09-2.06h12.73c0,0,1.79,1.79,4.95,2.06
						C374.59,222.58,363.03,225.54,351.81,222.58z"/>
					<path class="st26" d="M374.68,222.58c0,0-11.56,2.96-22.78,0"/>
				</g>
			</g>
			<g>
				<path class="st22" d="M374.58,234.97v14.76h4.65v-4.29c0-2.95,2.39-5.33,5.33-5.33c2.95,0,5.33,2.39,5.33,5.33v4.29h4.65v-14.76
					H374.58z"/>
				<rect x="374.11" y="232.63" class="st23" width="20.9" height="2.66"/>
				<rect x="378.37" y="227.99" class="st22" width="12.38" height="4.64"/>
				<rect x="374.58" y="236.97" class="st23" width="19.97" height="2.48"/>
				<rect x="379.39" y="228.58" class="st23" width="10.35" height="3.43"/>
				<g>
					<rect x="376.26" y="226.26" class="st24" width="15.89" height="1.69"/>
					<rect x="379" y="222.34" class="st19" width="11.2" height="1.69"/>
					<path class="st17" d="M374.51,225.85c0,0,3.51-0.73,4.48-1.82h11.19c0,0,1.57,1.57,4.36,1.82
						C394.54,225.85,384.37,228.46,374.51,225.85z"/>
					<path class="st27" d="M394.62,225.85c0,0-10.17,2.6-20.03,0"/>
				</g>
			</g>
			<g>
				<path class="st22" d="M322.35,232.94v16.79h-5.29v-4.88c0-3.35-2.72-6.06-6.06-6.06c-3.35,0-6.06,2.72-6.06,6.06v4.88h-5.29
					v-16.79H322.35z"/>
				
					<rect x="299.12" y="230.28" transform="matrix(-1 -1.224647e-16 1.224647e-16 -1 621.9936 463.5956)" class="st23" width="23.76" height="3.03"/>
				
					<rect x="303.96" y="225.01" transform="matrix(-1 -1.224647e-16 1.224647e-16 -1 621.9936 455.2924)" class="st22" width="14.08" height="5.28"/>
				
					<rect x="299.64" y="235.22" transform="matrix(-1 -1.224647e-16 1.224647e-16 -1 621.9936 473.2519)" class="st23" width="22.71" height="2.82"/>
				
					<rect x="305.11" y="225.67" transform="matrix(-1 -1.224647e-16 1.224647e-16 -1 621.9936 455.2465)" class="st23" width="11.77" height="3.9"/>
				<g>
					
						<rect x="302.36" y="223.04" transform="matrix(-1 -1.224647e-16 1.224647e-16 -1 622.7931 447.9983)" class="st24" width="18.07" height="1.93"/>
					
						<rect x="304.59" y="218.59" transform="matrix(-1 -1.224647e-16 1.224647e-16 -1 621.9051 439.0989)" class="st19" width="12.73" height="1.93"/>
					<path class="st17" d="M322.43,222.58c0,0-3.99-0.83-5.09-2.06h-12.73c0,0-1.79,1.79-4.95,2.06
						C299.65,222.58,311.21,225.54,322.43,222.58z"/>
					<path class="st26" d="M299.56,222.58c0,0,11.56,2.96,22.78,0"/>
				</g>
			</g>
			<g>
				<path class="st22" d="M299.66,234.97v14.76h-4.65v-4.29c0-2.95-2.39-5.33-5.33-5.33s-5.33,2.39-5.33,5.33v4.29h-4.65v-14.76
					H299.66z"/>
				
					<rect x="279.23" y="232.63" transform="matrix(-1 -1.224647e-16 1.224647e-16 -1 579.355 467.924)" class="st23" width="20.9" height="2.66"/>
				
					<rect x="283.49" y="227.99" transform="matrix(-1 -1.224647e-16 1.224647e-16 -1 579.3551 460.6226)" class="st22" width="12.38" height="4.64"/>
				
					<rect x="279.69" y="236.97" transform="matrix(-1 -1.224647e-16 1.224647e-16 -1 579.355 476.4152)" class="st23" width="19.97" height="2.48"/>
				
					<rect x="284.5" y="228.58" transform="matrix(-1 -1.224647e-16 1.224647e-16 -1 579.3551 460.5822)" class="st23" width="10.35" height="3.43"/>
				<g>
					
						<rect x="282.08" y="226.26" transform="matrix(-1 -1.224647e-16 1.224647e-16 -1 580.0581 454.2086)" class="st24" width="15.89" height="1.69"/>
					
						<rect x="284.04" y="222.34" transform="matrix(-1 -1.224647e-16 1.224647e-16 -1 579.2773 446.3828)" class="st19" width="11.2" height="1.69"/>
					<path class="st17" d="M299.73,225.85c0,0-3.51-0.73-4.48-1.82h-11.19c0,0-1.57,1.57-4.36,1.82
						C279.7,225.85,289.87,228.46,299.73,225.85z"/>
					<path class="st27" d="M279.62,225.85c0,0,10.17,2.6,20.03,0"/>
				</g>
			</g>
			<g>
				<rect x="320.98" y="228.38" class="st14" width="4.3" height="21.36"/>
				<rect x="321.44" y="229.2" class="st23" width="3.37" height="20.09"/>
			</g>
			<g>
				<rect x="349.82" y="228.38" class="st14" width="4.3" height="21.36"/>
				<rect x="350.29" y="229.2" class="st23" width="3.37" height="20.09"/>
			</g>
			<g>
				<rect x="372.98" y="232.94" class="st14" width="4.3" height="16.79"/>
				<rect x="373.44" y="233.59" class="st23" width="3.37" height="15.79"/>
			</g>
			<g>
				<rect x="296.93" y="232.94" class="st14" width="4.3" height="16.79"/>
				<rect x="297.4" y="233.59" class="st23" width="3.37" height="15.79"/>
			</g>
		</g>
	</g>
	<g>
		<g>
			<ellipse class="st21" cx="259.08" cy="347.19" rx="31.86" ry="7.55"/>
			<g>
				<g>
					<rect x="238" y="296.3" class="st23" width="41.49" height="51.28"/>
					<polygon class="st28" points="288.04,309.61 229.45,309.61 231.66,302.74 285.82,302.74 					"/>
					<polygon class="st28" points="282.13,298.23 235.36,298.23 237.13,292.71 280.36,292.71 					"/>
					<path class="st23" d="M272.24,292.71h-27c3.68-0.48,8.57-6.68,10.48-9.29c0.52-0.7,0.81-1.14,0.81-1.14h4.42
						c0.2,0.39,0.41,0.78,0.63,1.14C265.43,289.96,272.24,292.71,272.24,292.71z"/>
					<rect x="255.25" y="280.38" class="st23" width="7" height="1.9"/>
					<path class="st23" d="M260.16,280.38h-2.82v-0.4c0-0.78,0.63-1.41,1.41-1.41l0,0c0.78,0,1.41,0.63,1.41,1.41V280.38z"/>
					<rect x="234.52" y="347.58" class="st29" width="48.44" height="1.31"/>
				</g>
				<g>
					<rect x="239.99" y="311.9" class="st17" width="6.87" height="3.27"/>
					<rect x="250.26" y="311.9" class="st17" width="6.87" height="3.27"/>
					<rect x="260.52" y="311.9" class="st17" width="6.87" height="3.27"/>
					<rect x="270.79" y="311.9" class="st17" width="6.87" height="3.27"/>
				</g>
				<g>
					<rect x="239.88" y="298.87" class="st17" width="6.87" height="3.27"/>
					<rect x="250.15" y="298.87" class="st17" width="6.87" height="3.27"/>
					<rect x="260.42" y="298.87" class="st17" width="6.87" height="3.27"/>
					<rect x="270.69" y="298.87" class="st17" width="6.87" height="3.27"/>
				</g>
				<g>
					<rect x="239.99" y="317.96" class="st17" width="6.87" height="3.27"/>
					<rect x="250.26" y="317.96" class="st17" width="6.87" height="3.27"/>
					<rect x="260.52" y="317.96" class="st17" width="6.87" height="3.27"/>
					<rect x="270.79" y="317.96" class="st17" width="6.87" height="3.27"/>
				</g>
				<g>
					<rect x="239.99" y="323.6" class="st17" width="6.87" height="3.27"/>
					<rect x="250.26" y="323.6" class="st17" width="6.87" height="3.27"/>
					<rect x="260.52" y="323.6" class="st17" width="6.87" height="3.27"/>
					<rect x="270.79" y="323.6" class="st17" width="6.87" height="3.27"/>
				</g>
				<g>
					<rect x="239.99" y="329.25" class="st17" width="6.87" height="3.27"/>
					<rect x="250.26" y="329.25" class="st17" width="6.87" height="3.27"/>
					<rect x="260.52" y="329.25" class="st17" width="6.87" height="3.27"/>
					<rect x="270.79" y="329.25" class="st17" width="6.87" height="3.27"/>
				</g>
				<g>
					<rect x="239.99" y="334.9" class="st17" width="6.87" height="3.27"/>
					<rect x="250.26" y="334.9" class="st17" width="6.87" height="3.27"/>
					<rect x="260.52" y="334.9" class="st17" width="6.87" height="3.27"/>
					<rect x="270.79" y="334.9" class="st17" width="6.87" height="3.27"/>
				</g>
				<g>
					<rect x="239.99" y="340.54" class="st17" width="6.87" height="3.27"/>
					<rect x="250.26" y="340.54" class="st17" width="6.87" height="3.27"/>
					<rect x="260.52" y="340.54" class="st17" width="6.87" height="3.27"/>
					<rect x="270.79" y="340.54" class="st17" width="6.87" height="3.27"/>
				</g>
				<rect x="238" y="309.61" class="st21" width="41.49" height="1.15"/>
				<rect x="238" y="298.3" class="st21" width="41.49" height="1.15"/>
				<path class="st21" d="M261.58,283.42h-5.86c0.52-0.7,0.81-1.14,0.81-1.14h4.42C261.15,282.67,261.36,283.05,261.58,283.42z"/>
			</g>
		</g>
		<g>
			<path class="st21" d="M377.51,326.74c0,2.95-10.09,5.34-22.53,5.34c-12.44,0-22.53-2.39-22.53-5.34c0-2.95,10.09-5.34,22.53-5.34
				C367.42,321.4,377.51,323.79,377.51,326.74z"/>
			<g>
				<path class="st22" d="M356.41,271.95h-2.65v-1.7c0-0.73,0.59-1.33,1.33-1.33l0,0c0.73,0,1.33,0.59,1.33,1.33V271.95z"/>
				<g>
					<rect x="341.76" y="315.91" class="st22" width="26.97" height="11.79"/>
					<polygon class="st30" points="370.7,315.91 339.79,315.91 341.76,312.36 368.73,312.36 					"/>
					<g>
						<path class="st31" d="M350.5,327.7h-5.08v-7.83c0-1.4,1.14-2.54,2.54-2.54l0,0c1.4,0,2.54,1.14,2.54,2.54V327.7z"/>
						<path class="st31" d="M357.4,327.7h-5.08v-7.83c0-1.4,1.14-2.54,2.54-2.54l0,0c1.4,0,2.54,1.14,2.54,2.54V327.7z"/>
						<path class="st31" d="M364.31,327.7h-5.08v-7.83c0-1.4,1.14-2.54,2.54-2.54l0,0c1.4,0,2.54,1.14,2.54,2.54V327.7z"/>
					</g>
				</g>
				<g>
					<rect x="344.53" y="300.57" class="st22" width="21.42" height="11.79"/>
					<polygon class="st30" points="367.99,303.06 342.5,303.06 344.12,299.51 366.37,299.51 					"/>
					<g>
						<path class="st31" d="M351.42,312.36h-4.44v-6.86c0-1.23,0.99-2.22,2.22-2.22l0,0c1.23,0,2.22,0.99,2.22,2.22V312.36z"/>
						<path class="st31" d="M357.47,312.36h-4.44v-6.86c0-1.23,0.99-2.22,2.22-2.22l0,0c1.23,0,2.22,0.99,2.22,2.22V312.36z"/>
						<path class="st31" d="M363.51,312.36h-4.44v-6.86c0-1.23,0.99-2.22,2.22-2.22l0,0c1.23,0,2.22,0.99,2.22,2.22V312.36z"/>
					</g>
				</g>
				<g>
					<rect x="346.78" y="290.19" class="st22" width="16.94" height="9.32"/>
					<polygon class="st30" points="365.32,292.15 345.17,292.15 346.45,289.35 364.04,289.35 					"/>
					<g>
						<path class="st31" d="M352.22,299.51h-3.51v-5.42c0-0.97,0.79-1.76,1.76-1.76l0,0c0.97,0,1.76,0.79,1.76,1.76V299.51z"/>
						<path class="st31" d="M357,299.51h-3.51v-5.42c0-0.97,0.79-1.76,1.76-1.76l0,0c0.97,0,1.76,0.79,1.76,1.76V299.51z"/>
						<path class="st31" d="M361.78,299.51h-3.51v-5.42c0-0.97,0.79-1.76,1.76-1.76l0,0c0.97,0,1.76,0.79,1.76,1.76V299.51z"/>
					</g>
				</g>
				<g>
					<rect x="348.86" y="282.31" class="st22" width="12.77" height="7.03"/>
					<polygon class="st30" points="362.85,283.79 347.64,283.79 348.61,281.68 361.88,281.68 					"/>
					<g>
						<path class="st31" d="M352.96,289.35h-2.65v-4.09c0-0.73,0.59-1.33,1.33-1.33l0,0c0.73,0,1.33,0.59,1.33,1.33V289.35z"/>
						<path class="st31" d="M356.57,289.35h-2.65v-4.09c0-0.73,0.59-1.33,1.33-1.33l0,0c0.73,0,1.33,0.59,1.33,1.33V289.35z"/>
						<path class="st31" d="M360.17,289.35h-2.65v-4.09c0-0.73,0.59-1.33,1.33-1.33l0,0c0.73,0,1.33,0.59,1.33,1.33V289.35z"/>
					</g>
				</g>
				<path class="st22" d="M353.25,272.18c0,0-0.51,7.53-4.66,9.5h13.32c0,0-5.07-3.07-5.02-9.5H353.25z"/>
				<rect x="352.22" y="271.48" class="st30" width="5.72" height="1.31"/>
				<rect x="346.78" y="292.16" class="st32" width="16.94" height="0.35"/>
				<rect x="344.53" y="303.04" class="st32" width="21.42" height="0.35"/>
				<rect x="341.76" y="315.91" class="st32" width="26.97" height="0.35"/>
				<rect x="341.15" y="327.7" class="st30" width="28.31" height="0.44"/>
			</g>
		</g>
		<g>
			<path class="st21" d="M236.23,265.37c0,2.13-7.27,3.85-16.23,3.85c-8.96,0-16.23-1.72-16.23-3.85c0-2.13,7.27-3.85,16.23-3.85
				C228.97,261.52,236.23,263.24,236.23,265.37z"/>
			<g>
				<polygon class="st17" points="226.42,240.2 220,240.2 220,240.2 220,240.2 220,240.2 213.58,240.2 210.26,267.25 220,267.25 
					220,267.25 220,267.25 220,267.25 229.74,267.25 				"/>
				<g>
					<polygon class="st33" points="220,166.07 212.32,166.07 213.58,175.09 220,175.09 226.42,175.09 227.69,166.07 					"/>
					<polygon class="st17" points="220,166.07 212.32,166.07 213.58,175.09 220,175.09 226.42,175.09 227.69,166.07 					"/>
					<g>
						<polygon class="st30" points="220,167.51 227.6,166.69 227.69,166.07 220,166.07 220,166.07 212.32,166.07 212.41,166.69 
													"/>
					</g>
				</g>
				<g>
					<polygon class="st33" points="220,175.09 212.32,175.09 213.58,184.11 220,184.11 226.42,184.11 227.69,175.09 					"/>
					<polygon class="st17" points="220,175.09 212.32,175.09 213.58,184.11 220,184.11 226.42,184.11 227.69,175.09 					"/>
					<g>
						<polygon class="st30" points="220,176.53 227.6,175.71 227.69,175.09 220,175.09 220,175.09 212.32,175.09 212.41,175.71 
													"/>
					</g>
				</g>
				<g>
					<polygon class="st33" points="220,184.11 212.32,184.11 213.58,193.12 220,193.12 226.42,193.12 227.69,184.11 					"/>
					<polygon class="st17" points="220,184.11 212.32,184.11 213.58,193.12 220,193.12 226.42,193.12 227.69,184.11 					"/>
					<g>
						<polygon class="st30" points="220,185.54 227.6,184.73 227.69,184.11 220,184.11 220,184.11 212.32,184.11 212.41,184.73 
													"/>
					</g>
				</g>
				<g>
					<polygon class="st33" points="220,193.12 212.32,193.12 213.58,202.14 220,202.14 226.42,202.14 227.69,193.12 					"/>
					<polygon class="st17" points="220,193.12 212.32,193.12 213.58,202.14 220,202.14 226.42,202.14 227.69,193.12 					"/>
					<g>
						<polygon class="st30" points="220,194.56 227.6,193.75 227.69,193.12 220,193.12 220,193.12 212.32,193.12 212.41,193.75 
													"/>
					</g>
				</g>
				<g>
					<polygon class="st33" points="220,202.14 212.32,202.14 213.58,211.16 220,211.16 226.42,211.16 227.69,202.14 					"/>
					<polygon class="st17" points="220,202.14 212.32,202.14 213.58,211.16 220,211.16 226.42,211.16 227.69,202.14 					"/>
					<g>
						<polygon class="st30" points="220,203.58 227.6,202.76 227.69,202.14 220,202.14 220,202.14 212.32,202.14 212.41,202.76 
													"/>
					</g>
				</g>
				<g>
					<polygon class="st33" points="220,211.16 212.32,211.16 213.58,220.18 220,220.18 226.42,220.18 227.69,211.16 					"/>
					<polygon class="st17" points="220,211.16 212.32,211.16 213.58,220.18 220,220.18 226.42,220.18 227.69,211.16 					"/>
					<g>
						<polygon class="st30" points="220,212.6 227.6,211.78 227.69,211.16 220,211.16 220,211.16 212.32,211.16 212.41,211.78 
													"/>
					</g>
				</g>
				<g>
					<polygon class="st33" points="220,220.18 212.32,220.18 213.58,229.19 220,229.19 226.42,229.19 227.69,220.18 					"/>
					<polygon class="st17" points="220,220.18 212.32,220.18 213.58,229.19 220,229.19 226.42,229.19 227.69,220.18 					"/>
					<g>
						<polygon class="st30" points="220,221.61 227.6,220.8 227.69,220.18 220,220.18 220,220.18 212.32,220.18 212.41,220.8 						
							"/>
					</g>
				</g>
				<g>
					<polygon class="st33" points="220,229.19 212.32,229.19 213.58,238.21 220,238.21 226.42,238.21 227.69,229.19 					"/>
					<polygon class="st17" points="220,229.19 212.32,229.19 213.58,238.21 220,238.21 226.42,238.21 227.69,229.19 					"/>
					<g>
						<polygon class="st30" points="220,230.63 227.6,229.82 227.69,229.19 220,229.19 220,229.19 212.32,229.19 212.41,229.82 
													"/>
					</g>
				</g>
				<rect x="215.61" y="162.07" class="st34" width="8.79" height="0.88"/>
				<rect x="215.05" y="162.96" class="st19" width="9.9" height="2.46"/>
				<polygon class="st23" points="226.9,165.42 220,165.42 213.11,165.42 212.32,166.07 220,166.07 227.69,166.07 				"/>
				<polygon class="st17" points="220,153.87 217.06,153.87 217.87,162.07 220,162.07 222.13,162.07 222.95,153.87 				"/>
				<rect x="217.06" y="152.7" class="st33" width="5.89" height="1.16"/>
				<polygon class="st19" points="220.86,150.51 220,150.51 220,150.51 219.15,150.51 217.99,152.7 220,152.7 220,152.7 
					222.01,152.7 				"/>
				<rect x="218.47" y="150.03" class="st34" width="3.07" height="1.04"/>
				<path class="st23" d="M220.45,137.83c-0.01-0.24-0.2-0.43-0.44-0.43l0,0l0,0c-0.24,0-0.44,0.19-0.44,0.43l-0.29,12.2H220h0.73
					L220.45,137.83z"/>
				<rect x="213.58" y="238.21" class="st19" width="12.84" height="1.99"/>
				<rect x="216.92" y="240.2" class="st19" width="6.17" height="27.05"/>
				<rect x="216.92" y="246.3" class="st30" width="6.17" height="1.85"/>
				<rect x="216.92" y="255.67" class="st30" width="6.17" height="1.85"/>
				<path class="st30" d="M222.65,239.56c0,1.46-1.18,2.64-2.64,2.64c-1.46,0-2.64-1.18-2.64-2.64c0-1.46,1.18-2.64,2.64-2.64
					C221.46,236.92,222.65,238.1,222.65,239.56z"/>
			</g>
		</g>
		<g>
			<ellipse class="st21" cx="401.03" cy="204.26" rx="29.38" ry="4.74"/>
			<g>
				<rect x="381.47" y="174.62" class="st28" width="4.14" height="30.57"/>
				<rect x="417.01" y="174.62" class="st28" width="4.14" height="30.57"/>
				<rect x="381.47" y="174.62" class="st21" width="4.14" height="0.73"/>
				<rect x="417.01" y="174.62" class="st21" width="4.14" height="0.73"/>
				<g>
					<rect x="380.27" y="169.14" class="st28" width="42.08" height="4.36"/>
					<polygon class="st28" points="422.35,168.02 380.27,168.02 381.27,164.73 421.34,164.73 					"/>
					<rect x="377.4" y="168.02" class="st35" width="47.81" height="1.12"/>
					<rect x="379" y="173.5" class="st35" width="44.61" height="1.12"/>
					<polygon class="st28" points="414.17,164.73 388.44,164.73 389.45,160.05 413.17,160.05 					"/>
					<rect x="388.25" y="159.46" class="st35" width="26.11" height="1.17"/>
					<g>
						<rect x="390.72" y="169.89" class="st21" width="21.18" height="3.02"/>
						<rect x="382.08" y="169.69" class="st36" width="3.41" height="3.41"/>
						<rect x="417.12" y="169.69" class="st36" width="3.41" height="3.41"/>
					</g>
					<g>
						<g>
							<path class="st37" d="M390.62,164.55L390.62,164.55c-0.11,0-0.2-0.09-0.2-0.2v-3.23c0-0.11,0.09-0.2,0.2-0.2l0,0
								c0.11,0,0.2,0.09,0.2,0.2v3.23C390.82,164.46,390.73,164.55,390.62,164.55z"/>
							<path class="st37" d="M392.27,164.55L392.27,164.55c-0.11,0-0.2-0.09-0.2-0.2v-3.23c0-0.11,0.09-0.2,0.2-0.2l0,0
								c0.11,0,0.2,0.09,0.2,0.2v3.23C392.46,164.46,392.37,164.55,392.27,164.55z"/>
							<path class="st37" d="M393.91,164.55L393.91,164.55c-0.11,0-0.2-0.09-0.2-0.2v-3.23c0-0.11,0.09-0.2,0.2-0.2l0,0
								c0.11,0,0.2,0.09,0.2,0.2v3.23C394.11,164.46,394.02,164.55,393.91,164.55z"/>
							<path class="st37" d="M395.55,164.55L395.55,164.55c-0.11,0-0.2-0.09-0.2-0.2v-3.23c0-0.11,0.09-0.2,0.2-0.2l0,0
								c0.11,0,0.2,0.09,0.2,0.2v3.23C395.75,164.46,395.66,164.55,395.55,164.55z"/>
							<path class="st37" d="M397.2,164.55L397.2,164.55c-0.11,0-0.2-0.09-0.2-0.2v-3.23c0-0.11,0.09-0.2,0.2-0.2l0,0
								c0.11,0,0.2,0.09,0.2,0.2v3.23C397.4,164.46,397.31,164.55,397.2,164.55z"/>
							<path class="st37" d="M398.84,164.55L398.84,164.55c-0.11,0-0.2-0.09-0.2-0.2v-3.23c0-0.11,0.09-0.2,0.2-0.2l0,0
								c0.11,0,0.2,0.09,0.2,0.2v3.23C399.04,164.46,398.95,164.55,398.84,164.55z"/>
							<path class="st37" d="M400.48,164.55L400.48,164.55c-0.11,0-0.2-0.09-0.2-0.2v-3.23c0-0.11,0.09-0.2,0.2-0.2l0,0
								c0.11,0,0.2,0.09,0.2,0.2v3.23C400.68,164.46,400.59,164.55,400.48,164.55z"/>
							<path class="st37" d="M402.13,164.55L402.13,164.55c-0.11,0-0.2-0.09-0.2-0.2v-3.23c0-0.11,0.09-0.2,0.2-0.2l0,0
								c0.11,0,0.2,0.09,0.2,0.2v3.23C402.33,164.46,402.24,164.55,402.13,164.55z"/>
							<path class="st37" d="M403.77,164.55L403.77,164.55c-0.11,0-0.2-0.09-0.2-0.2v-3.23c0-0.11,0.09-0.2,0.2-0.2l0,0
								c0.11,0,0.2,0.09,0.2,0.2v3.23C403.97,164.46,403.88,164.55,403.77,164.55z"/>
							<path class="st37" d="M405.42,164.55L405.42,164.55c-0.11,0-0.2-0.09-0.2-0.2v-3.23c0-0.11,0.09-0.2,0.2-0.2l0,0
								c0.11,0,0.2,0.09,0.2,0.2v3.23C405.61,164.46,405.53,164.55,405.42,164.55z"/>
							<path class="st37" d="M407.06,164.55L407.06,164.55c-0.11,0-0.2-0.09-0.2-0.2v-3.23c0-0.11,0.09-0.2,0.2-0.2l0,0
								c0.11,0,0.2,0.09,0.2,0.2v3.23C407.26,164.46,407.17,164.55,407.06,164.55z"/>
							<path class="st37" d="M408.7,164.55L408.7,164.55c-0.11,0-0.2-0.09-0.2-0.2v-3.23c0-0.11,0.09-0.2,0.2-0.2l0,0
								c0.11,0,0.2,0.09,0.2,0.2v3.23C408.9,164.46,408.81,164.55,408.7,164.55z"/>
							<path class="st37" d="M410.35,164.55L410.35,164.55c-0.11,0-0.2-0.09-0.2-0.2v-3.23c0-0.11,0.09-0.2,0.2-0.2l0,0
								c0.11,0,0.2,0.09,0.2,0.2v3.23C410.55,164.46,410.46,164.55,410.35,164.55z"/>
							<path class="st37" d="M411.99,164.55L411.99,164.55c-0.11,0-0.2-0.09-0.2-0.2v-3.23c0-0.11,0.09-0.2,0.2-0.2l0,0
								c0.11,0,0.2,0.09,0.2,0.2v3.23C412.19,164.46,412.1,164.55,411.99,164.55z"/>
						</g>
					</g>
				</g>
			</g>
		</g>
		<g>
			<path class="st21" d="M432.07,139.73c0,2.88-21.98,5.22-49.09,5.22c-27.11,0-49.09-2.34-49.09-5.22s21.98-5.22,49.09-5.22
				C410.09,134.52,432.07,136.85,432.07,139.73z"/>
			<g>
				<rect x="353.46" y="132.78" class="st22" width="57.48" height="2.78"/>
				<rect x="347.31" y="135.56" class="st23" width="69.78" height="2.78"/>
				<rect x="340.8" y="138.34" class="st38" width="82.8" height="2.78"/>
				<polygon class="st14" points="396.89,132.78 382.2,132.78 367.51,132.78 359.61,141.12 382.2,141.12 404.79,141.12 				"/>
				<g>
					<polygon class="st30" points="366.57,112.47 382.2,112.47 382.2,108.86 364.55,108.86 					"/>
					<polygon class="st30" points="382.2,108.86 382.2,112.47 397.83,112.47 399.85,108.86 					"/>
				</g>
				<g>
					<polygon class="st30" points="370.48,105.27 382.2,105.27 382.2,102.39 368.97,102.39 					"/>
					<polygon class="st30" points="382.2,102.39 382.2,105.27 393.91,105.27 395.43,102.39 					"/>
				</g>
				<rect x="366.57" y="112.47" class="st23" width="31.26" height="20.31"/>
				<g>
					<g>
						<polygon class="st22" points="373.47,132.78 361.55,132.78 364.33,114.66 373.47,114.66 						"/>
					</g>
					<g>
						<polygon class="st22" points="390.93,132.78 402.85,132.78 400.07,114.66 390.93,114.66 						"/>
					</g>
				</g>
				<path class="st39" d="M382.2,119.14L382.2,119.14c-2.65,0-4.81,2.15-4.81,4.81v8.83H387v-8.83
					C387,121.29,384.85,119.14,382.2,119.14z"/>
				<path class="st30" d="M377.39,132.78v-8.83c0-2.65,2.15-4.81,4.81-4.81c2.65,0,4.81,2.15,4.81,4.81v8.83h1.33v-8.83
					c0-3.39-2.75-6.14-6.14-6.14c-3.39,0-6.14,2.75-6.14,6.14v8.83H377.39z"/>
				<g>
					<polygon class="st24" points="387.86,105.27 382.2,105.27 376.54,105.27 373.47,109.86 375.58,111.35 382.2,111.35 
						382.2,111.35 382.2,111.35 388.82,111.35 390.93,109.86 					"/>
					<polygon class="st17" points="370.48,105.27 362.62,109.85 366.57,111.35 371.36,111.35 373.47,109.86 376.54,105.27 					"/>
					<polygon class="st17" points="393.91,105.27 401.78,109.85 397.83,111.35 393.04,111.35 390.93,109.86 387.86,105.27 					"/>
				</g>
				<g>
					<polygon class="st22" points="397.83,111.59 393.04,111.59 392.9,111.55 390.93,110.15 388.96,111.55 388.82,111.59 
						375.57,111.59 375.44,111.55 373.47,110.15 371.5,111.55 371.36,111.59 366.57,111.59 366.48,111.57 362.54,110.08 
						362.71,109.63 366.61,111.11 371.28,111.11 373.33,109.66 373.6,109.66 375.65,111.11 388.74,111.11 390.79,109.66 
						391.07,109.66 393.12,111.11 397.79,111.11 401.69,109.63 401.86,110.08 397.91,111.57 					"/>
				</g>
				<g>
					<polygon class="st24" points="386.81,99.63 382.9,93.86 381.49,93.86 377.59,99.63 375.09,103.37 376.8,104.58 382.2,104.58 
						382.2,104.58 382.2,104.58 387.59,104.58 389.31,103.37 					"/>
					<path class="st17" d="M380.99,93.86c-2.12,1.81-6.67,5.56-10.43,7.87l-4.31,1.64l3.21,1.22h3.9l1.72-1.22l2.5-3.73l3.91-5.77
						H380.99z"/>
					<path class="st17" d="M393.83,101.73c-3.76-2.3-8.3-6.06-10.43-7.87h-0.5l3.91,5.77l2.5,3.73l1.72,1.22h3.9l3.21-1.22
						L393.83,101.73z"/>
				</g>
				<g>
					<polygon class="st22" points="394.93,104.82 391.03,104.82 390.89,104.78 389.31,103.66 387.73,104.78 387.59,104.82 
						376.8,104.82 376.67,104.78 375.09,103.66 373.51,104.78 373.37,104.82 369.47,104.82 369.38,104.81 366.17,103.59 
						366.34,103.14 369.51,104.34 373.29,104.34 374.95,103.17 375.23,103.17 376.88,104.34 387.52,104.34 389.17,103.17 
						389.45,103.17 391.1,104.34 394.88,104.34 398.06,103.14 398.23,103.59 395.01,104.81 					"/>
				</g>
				<polygon class="st28" points="382.9,92.79 382.2,92.79 381.49,92.79 380.99,93.86 382.2,93.86 383.4,93.86 				"/>
				<path class="st28" d="M383.39,91.46c0-0.66-0.53-1.19-1.19-1.19c-0.66,0-1.19,0.53-1.19,1.19c0,0,0,0,0,0
					c0,0.77,0.49,1.33,0.49,1.33h0.7h0.7C382.9,92.79,383.39,92.24,383.39,91.46C383.39,91.46,383.39,91.46,383.39,91.46z"/>
				<polygon class="st22" points="387.33,132.78 382.2,132.78 377.07,132.78 372.81,141.12 382.2,141.12 391.59,141.12 				"/>
				<g>
					<rect x="380.77" y="111.87" class="st28" width="2.85" height="3.9"/>
				</g>
			</g>
		</g>
		<g>
			<path class="st21" d="M481.34,130.39c0,2.09-10.13,3.78-22.63,3.78c-12.5,0-22.63-1.69-22.63-3.78c0-2.08,10.13-3.78,22.63-3.78
				C471.21,126.62,481.34,128.31,481.34,130.39z"/>
			<g>
				<path class="st40" d="M476.97,102.98l-0.57,1.62c0,0,1.06,0.64-0.14,0.78c0,0,0.92,0.71-0.14,0.85c0,0,0.92,3.11-1.91,3.11
					c-0.28,0-0.56,0.08-0.85,0.25c-2.72,1.51-5.75,9.73-0.14,19.04c0,0,2.9,2.62-0.07,2.55c-2.97-0.07-1.65-1.06-4.53-1.41
					c-2.88-0.35-1.47,1.2-4.08,0.64c-2.54-0.55-1.55-1.03-3.49-0.54c-0.06,0.01-0.12,0.03-0.18,0.05c-2.19,0.57-2.89,1.2-4.8,0.42
					c-1.91-0.77-3.46-0.85-4.52-0.28c-1.06,0.57-2.47,0.92-3.75,0c-1.27-0.92-5.93-1.13-5.93-1.13s0.35-3.25,8.48-5.02
					c8.12-1.76,13.35-9.89,13.64-13.07c0.28-3.18,0.35-4.13,0.35-4.13s-0.04-0.03-0.11-0.11c-0.41-0.39-1.8-1.86-1.8-3.6
					c0-2.05-1.58-0.28-2.49-1.84c-0.9-1.55-0.98-1.9-2.04-2.47c-1.06-0.57-1.77-3.04-1.91-4.17c-0.14-1.13-2.61-0.71-2.55-3.18
					c0.07-2.47,0.92-4.73,2.19-6.29c1.27-1.55,3.67-2.83,3.67-2.83s-0.77,3.75,2.69,3.39c0,0,0,1.27,1.51,1.63
					c0.34,0.07,0.74,0.11,1.25,0.07c0.62-0.05,1.2-0.02,1.73,0.08c1.81,0.32,3.09,1.41,3.85,2.89c0.99,1.91,1.91,1.98,3.04,2.05
					c0.58,0.04,0.86,0.24,1,0.7c0.13,0.43,0.13,1.1,0.13,2.06c0,1.98,1.13,4.1,2.47,4.94C478.31,100.86,478.38,103.55,476.97,102.98
					z"/>
				<path class="st21" d="M466.63,103.01c0,0.68-0.05,1.39-0.34,2.01c-0.4,0.82-1.19,1.35-2.08,1.58c-0.41-0.39-1.8-1.86-1.8-3.6
					c0-2.05-1.58-0.28-2.49-1.84c-0.9-1.55-0.98-1.9-2.04-2.47c-1.06-0.57-1.77-3.04-1.91-4.17c-0.14-1.13-2.61-0.71-2.55-3.18
					c0.07-2.47,0.92-4.73,2.19-6.29c1.27-1.55,3.67-2.83,3.67-2.83s-0.77,3.75,2.69,3.39c0,0,0,1.27,1.51,1.63
					c0.34,0.07,0.74,0.11,1.25,0.07c0.62-0.05,1.2-0.02,1.73,0.08c0.03,1.26-0.32,2.53-0.5,3.79
					C465.43,95.09,466.65,99.05,466.63,103.01z"/>
				<path class="st41" d="M476.97,102.98l-0.57,1.62c0,0,1.06,0.64-0.14,0.78c0,0,0.92,0.71-0.14,0.85c0,0,0.92,3.11-1.91,3.11
					c-0.28,0-0.56,0.08-0.85,0.25c-2.72,1.51-5.75,9.73-0.14,19.04c0,0,2.9,2.62-0.07,2.55c-2.97-0.07-1.65-1.06-4.53-1.41
					c-2.88-0.35-1.47,1.2-4.08,0.64c-2.54-0.55-1.55-1.03-3.49-0.54c1.65-1.99,5.39-2.53,6.3-5.11c0.6-1.7-0.32-3.51-0.77-5.25
					c-1.26-4.81,1.03-10.13-0.68-14.8c-0.61-1.67-1.73-3.21-1.85-4.99c-0.12-1.67,0.67-3.3,0.64-4.98c-0.04-2.23-1.92-5.33-1.19-7.5
					c0.34,0.07,0.74,0.11,1.25,0.07c2.75-0.21,4.59,1.06,5.58,2.97c0.99,1.91,1.91,1.98,3.04,2.05c0.58,0.04,0.86,0.24,1,0.7
					c0.13,0.43,0.13,1.1,0.13,2.06c0,1.98,1.13,4.1,2.47,4.94C478.31,100.86,478.38,103.55,476.97,102.98z"/>
				<path class="st42" d="M476.97,102.98l-0.57,1.62c0,0,1.06,0.64-0.14,0.78c0,0,0.92,0.71-0.14,0.85c0,0,0.92,3.11-1.91,3.11
					c-0.28,0-0.56,0.08-0.85,0.25c-0.33,0.03-0.66,0.06-0.99,0.06c-1.68,0.03-3.56-0.54-4.34-2.03c-0.68-1.3-0.33-2.87-0.42-4.33
					c-0.17-2.68-1.85-5.45-0.68-7.87c0.66-1.38,2.14-2.22,3.64-2.52c1.39-0.27,2.66-0.32,3.79,0.11c0.13,0.43,0.13,1.1,0.13,2.06
					c0,1.98,1.13,4.1,2.47,4.94C478.31,100.86,478.38,103.55,476.97,102.98z"/>
			</g>
		</g>
	</g>
	<g>
		<g>
			<ellipse class="st21" cx="450.8" cy="178.78" rx="8.76" ry="1.41"/>
			<g>
				<rect x="450.38" y="171.03" class="st43" width="1" height="8.27"/>
				<polygon class="st44" points="458.71,172.64 443.04,172.64 450.35,150.51 450.38,150.57 				"/>
				<polygon class="st45" points="458.71,172.64 450.38,172.64 450.38,150.57 				"/>
			</g>
		</g>
		<g>
			<path class="st21" d="M354.34,168.92c0,0.57-2.88,1.04-6.43,1.04c-3.55,0-6.43-0.46-6.43-1.04s2.88-1.04,6.43-1.04
				C351.46,167.88,354.34,168.35,354.34,168.92z"/>
			<g>
				<rect x="347.6" y="163.23" class="st43" width="0.73" height="6.07"/>
				<polygon class="st44" points="353.72,164.41 342.22,164.41 347.58,148.17 347.6,148.22 				"/>
				<polygon class="st45" points="353.72,164.41 347.6,164.41 347.6,148.22 				"/>
			</g>
		</g>
		<g>
			<path class="st21" d="M426.26,109.63c0,0.57-2.88,1.04-6.43,1.04c-3.55,0-6.43-0.46-6.43-1.04c0-0.57,2.88-1.04,6.43-1.04
				C423.38,108.59,426.26,109.06,426.26,109.63z"/>
			<g>
				<rect x="419.52" y="103.94" class="st43" width="0.73" height="6.07"/>
				<polygon class="st44" points="425.64,105.12 414.14,105.12 419.5,88.88 419.52,88.93 				"/>
				<polygon class="st45" points="425.64,105.12 419.52,105.12 419.52,88.93 				"/>
			</g>
		</g>
		<g>
			<ellipse class="st21" cx="266.5" cy="229.92" rx="7.49" ry="1.21"/>
			<g>
				<rect x="266.14" y="223.3" class="st43" width="0.85" height="7.07"/>
				<polygon class="st44" points="273.27,224.67 259.87,224.67 266.12,205.75 266.14,205.8 				"/>
				<polygon class="st45" points="273.27,224.67 266.14,224.67 266.14,205.8 				"/>
			</g>
		</g>
		<g>
			<ellipse class="st21" cx="215.05" cy="298.98" rx="7.49" ry="1.21"/>
			<g>
				<rect x="214.69" y="292.35" class="st43" width="0.85" height="7.07"/>
				<polygon class="st44" points="221.82,293.72 208.41,293.72 214.67,274.8 214.69,274.85 				"/>
				<polygon class="st45" points="221.82,293.72 214.69,293.72 214.69,274.85 				"/>
			</g>
		</g>
		<g>
			<path class="st21" d="M327.92,420.69c0,0.76-3.81,1.37-8.51,1.37s-8.51-0.61-8.51-1.37c0-0.76,3.81-1.37,8.51-1.37
				S327.92,419.93,327.92,420.69z"/>
			<g>
				<rect x="319" y="413.16" class="st43" width="0.97" height="8.03"/>
				<polygon class="st44" points="327.1,414.72 311.88,414.72 318.98,393.23 319,393.29 				"/>
				<polygon class="st45" points="327.1,414.72 319,414.72 319,393.29 				"/>
			</g>
		</g>
		<g>
			<path class="st21" d="M315.77,319.52c0,0.59-2.96,1.07-6.62,1.07c-3.65,0-6.62-0.48-6.62-1.07c0-0.59,2.96-1.07,6.62-1.07
				C312.8,318.46,315.77,318.93,315.77,319.52z"/>
			<g>
				<rect x="308.83" y="313.67" class="st43" width="0.75" height="6.24"/>
				<polygon class="st44" points="315.13,314.88 303.29,314.88 308.81,298.17 308.83,298.21 				"/>
				<polygon class="st45" points="315.13,314.88 308.83,314.88 308.83,298.21 				"/>
			</g>
		</g>
		<g>
			<path class="st21" d="M404.44,282.93c0,0.59-2.96,1.07-6.62,1.07s-6.62-0.48-6.62-1.07c0-0.59,2.96-1.07,6.62-1.07
				S404.44,282.34,404.44,282.93z"/>
			<g>
				<rect x="397.51" y="277.08" class="st43" width="0.75" height="6.24"/>
				<polygon class="st44" points="403.8,278.29 391.96,278.29 397.49,261.58 397.51,261.62 				"/>
				<polygon class="st45" points="403.8,278.29 397.51,278.29 397.51,261.62 				"/>
			</g>
		</g>
		<g>
			<path class="st21" d="M415.09,229.81c0,0.59-2.96,1.07-6.62,1.07c-3.65,0-6.62-0.48-6.62-1.07c0-0.59,2.96-1.07,6.62-1.07
				C412.13,228.75,415.09,229.22,415.09,229.81z"/>
			<g>
				<rect x="408.16" y="223.96" class="st43" width="0.75" height="6.24"/>
				<polygon class="st44" points="414.45,225.17 402.61,225.17 408.14,208.46 408.15,208.5 				"/>
				<polygon class="st45" points="414.45,225.17 408.15,225.17 408.15,208.5 				"/>
			</g>
		</g>
	</g>
	<g>
		<g>
			<path class="st21" d="M374.7,190.53c0,0.45-6.76,0.81-15.09,0.81c-8.33,0-15.09-0.36-15.09-0.81c0-0.45,6.76-0.81,15.09-0.81
				C367.94,189.71,374.7,190.08,374.7,190.53z"/>
			<g>
				<path class="st44" d="M355.67,190.01c0,0.22-0.02,0.44-0.06,0.65h-7.65c-0.04-0.21-0.06-0.43-0.06-0.65
					c0-2.14,1.74-3.88,3.88-3.88c1.33,0,2.5,0.67,3.2,1.68C355.42,188.43,355.67,189.19,355.67,190.01z"/>
				<path class="st44" d="M359.83,190.66h-7.56c0.32-1.38,1.37-2.47,2.72-2.86c0.34-0.1,0.69-0.15,1.06-0.15
					c0.47,0,0.92,0.08,1.34,0.24C358.6,188.34,359.54,189.38,359.83,190.66z"/>
				<path class="st44" d="M367.43,190.15c0,0.17-0.01,0.34-0.03,0.51h-10.5c-0.02-0.17-0.03-0.34-0.03-0.51
					c0-0.81,0.18-1.57,0.51-2.25c0.84-1.79,2.66-3.02,4.77-3.02c2.36,0,4.36,1.55,5.03,3.68
					C367.35,189.06,367.43,189.59,367.43,190.15z"/>
				<path class="st44" d="M370.53,190.66h-4.98c0.09-0.97,0.75-1.78,1.64-2.11c0.27-0.1,0.55-0.15,0.85-0.15
					C369.34,188.4,370.41,189.39,370.53,190.66z"/>
			</g>
		</g>
		<g>
			<path class="st21" d="M331.28,356.57c0,0.55-8.31,1-18.56,1c-10.25,0-18.56-0.45-18.56-1c0-0.55,8.31-1,18.56-1
				C322.97,355.58,331.28,356.02,331.28,356.57z"/>
			<g>
				<path class="st44" d="M307.88,355.94c0,0.28-0.02,0.54-0.07,0.8h-9.41c-0.05-0.26-0.07-0.53-0.07-0.8
					c0-2.64,2.14-4.78,4.78-4.78c1.63,0,3.08,0.82,3.93,2.07C307.57,354,307.88,354.93,307.88,355.94z"/>
				<path class="st44" d="M312.99,356.74h-9.3c0.39-1.69,1.68-3.04,3.34-3.51c0.41-0.12,0.85-0.18,1.31-0.18
					c0.58,0,1.13,0.1,1.65,0.29C311.49,353.89,312.63,355.16,312.99,356.74z"/>
				<path class="st44" d="M322.35,356.11c0,0.21-0.01,0.42-0.03,0.63H309.4c-0.02-0.21-0.03-0.42-0.03-0.63
					c0-0.99,0.22-1.93,0.62-2.77c1.04-2.2,3.27-3.72,5.87-3.72c2.9,0,5.36,1.9,6.19,4.53C322.24,354.77,322.35,355.43,322.35,356.11
					z"/>
				<path class="st44" d="M326.15,356.74h-6.12c0.12-1.2,0.92-2.19,2.01-2.59c0.33-0.12,0.68-0.18,1.05-0.18
					C324.69,353.97,326,355.18,326.15,356.74z"/>
			</g>
		</g>
		<g>
			<path class="st21" d="M388.97,267.04c0,0.43-6.48,0.78-14.47,0.78c-7.99,0-14.47-0.35-14.47-0.78c0-0.43,6.48-0.78,14.47-0.78
				C382.5,266.26,388.97,266.61,388.97,267.04z"/>
			<g>
				<path class="st44" d="M370.73,266.54c0,0.21-0.02,0.42-0.05,0.63h-7.34c-0.04-0.2-0.05-0.41-0.05-0.63
					c0-2.06,1.67-3.72,3.72-3.72c1.27,0,2.4,0.64,3.07,1.61C370.49,265.03,370.73,265.76,370.73,266.54z"/>
				<path class="st44" d="M374.72,267.17h-7.25c0.3-1.32,1.31-2.37,2.61-2.74c0.32-0.09,0.67-0.14,1.02-0.14
					c0.45,0,0.88,0.08,1.28,0.23C373.55,264.94,374.44,265.94,374.72,267.17z"/>
				<path class="st44" d="M382.01,266.68c0,0.17-0.01,0.33-0.02,0.49h-10.07c-0.02-0.16-0.02-0.33-0.02-0.49
					c0-0.77,0.17-1.51,0.49-2.16c0.81-1.71,2.55-2.9,4.57-2.9c2.26,0,4.18,1.48,4.82,3.53
					C381.93,265.63,382.01,266.14,382.01,266.68z"/>
				<path class="st44" d="M384.98,267.17h-4.77c0.09-0.93,0.72-1.71,1.57-2.02c0.26-0.09,0.53-0.14,0.82-0.14
					C383.84,265,384.86,265.95,384.98,267.17z"/>
			</g>
		</g>
		<g>
			<path class="st21" d="M467.91,144.66c0,0.43-6.48,0.78-14.47,0.78c-7.99,0-14.47-0.35-14.47-0.78c0-0.43,6.48-0.78,14.47-0.78
				C461.43,143.88,467.91,144.23,467.91,144.66z"/>
			<g>
				<path class="st44" d="M449.66,144.16c0,0.21-0.02,0.42-0.05,0.63h-7.34c-0.04-0.2-0.05-0.41-0.05-0.63
					c0-2.06,1.67-3.72,3.72-3.72c1.27,0,2.4,0.64,3.07,1.61C449.42,142.65,449.66,143.38,449.66,144.16z"/>
				<path class="st44" d="M453.65,144.79h-7.25c0.3-1.32,1.31-2.37,2.61-2.74c0.32-0.09,0.67-0.14,1.02-0.14
					c0.45,0,0.88,0.08,1.28,0.23C452.48,142.57,453.37,143.56,453.65,144.79z"/>
				<path class="st44" d="M460.94,144.3c0,0.17-0.01,0.33-0.02,0.49h-10.07c-0.02-0.16-0.02-0.33-0.02-0.49
					c0-0.77,0.17-1.51,0.49-2.16c0.81-1.71,2.55-2.9,4.57-2.9c2.26,0,4.18,1.48,4.82,3.53C460.86,143.25,460.94,143.77,460.94,144.3
					z"/>
				<path class="st44" d="M463.91,144.79h-4.77c0.09-0.93,0.72-1.71,1.57-2.02c0.26-0.09,0.53-0.14,0.82-0.14
					C462.77,142.63,463.79,143.58,463.91,144.79z"/>
			</g>
		</g>
		<g>
			<path class="st21" d="M433.32,127.05c0,0.46-5.85,0.83-13.07,0.83c-7.22,0-13.07-0.37-13.07-0.83c0-0.46,5.85-0.83,13.07-0.83
				C427.47,126.21,433.32,126.59,433.32,127.05z"/>
			<g>
				<path class="st44" d="M413.97,126.96h-4.9c0.32-1.05,1.3-1.81,2.45-1.81c0.4,0,0.78,0.09,1.12,0.26
					C413.28,125.71,413.77,126.28,413.97,126.96z"/>
				<path class="st44" d="M421.65,125.76c0,0.42-0.06,0.82-0.16,1.2h-8.69c-0.11-0.38-0.16-0.79-0.16-1.2
					c0-0.12,0.01-0.24,0.01-0.35c0.18-2.33,2.12-4.16,4.5-4.16c1.82,0,3.39,1.08,4.1,2.63C421.5,124.45,421.65,125.09,421.65,125.76
					z"/>
				<path class="st44" d="M428.16,126.57c0,0.13-0.01,0.26-0.02,0.39h-7.93c-0.01-0.13-0.02-0.26-0.02-0.39
					c0-1.04,0.4-1.98,1.05-2.69c0.73-0.79,1.77-1.29,2.93-1.29c1.65,0,3.07,1.01,3.67,2.44
					C428.05,125.51,428.16,126.03,428.16,126.57z"/>
				<path class="st44" d="M431.8,126.96h-5.78c0.28-0.89,0.96-1.61,1.82-1.93c0.33-0.13,0.69-0.19,1.07-0.19
					C430.27,124.84,431.42,125.73,431.8,126.96z"/>
			</g>
		</g>
		<g>
			<ellipse class="st21" cx="261.57" cy="269.14" rx="15.99" ry="1.02"/>
			<g>
				<path class="st44" d="M253.89,269.04h-6c0.39-1.28,1.59-2.22,3-2.22c0.49,0,0.95,0.11,1.37,0.31
					C253.04,267.52,253.64,268.2,253.89,269.04z"/>
				<path class="st44" d="M263.28,267.57c0,0.51-0.07,1-0.2,1.47h-10.63c-0.13-0.47-0.2-0.96-0.2-1.47c0-0.15,0.01-0.29,0.02-0.43
					c0.22-2.84,2.6-5.08,5.5-5.08c2.23,0,4.14,1.32,5.02,3.22C263.1,265.97,263.28,266.75,263.28,267.57z"/>
				<path class="st44" d="M271.24,268.57c0,0.16-0.01,0.32-0.02,0.48h-9.7c-0.02-0.16-0.02-0.32-0.02-0.48
					c0-1.27,0.49-2.43,1.28-3.29c0.89-0.97,2.17-1.58,3.59-1.58c2.02,0,3.76,1.23,4.49,2.99
					C271.11,267.26,271.24,267.9,271.24,268.57z"/>
				<path class="st44" d="M275.71,269.04h-7.07c0.34-1.09,1.17-1.96,2.23-2.37c0.41-0.15,0.85-0.24,1.31-0.24
					C273.83,266.44,275.24,267.54,275.71,269.04z"/>
			</g>
		</g>
	</g>
	<g>
		<g>
			<ellipse class="st21" cx="179.22" cy="411.44" rx="15.93" ry="3.78"/>
			<g>
				<g>
					
						<rect x="168.31" y="396.15" transform="matrix(-1 -1.224647e-16 1.224647e-16 -1 337.0263 802.7736)" class="st19" width="0.41" height="10.47"/>
					<polygon class="st28" points="165.71,397.37 168.31,396.26 168.31,398.48 					"/>
				</g>
				<polygon class="st40" points="185.57,406 185.57,397.86 176.74,397.86 176.74,402.9 169.6,402.9 169.6,406.75 				"/>
				<path class="st37" d="M165.93,405.12l1.88,3.29l1.93,3.38h20.25l1.97-4.87l1.63-4.02C183.67,407.2,165.93,405.12,165.93,405.12z
					"/>
				<circle class="st17" cx="181.27" cy="400.71" r="1.68"/>
				
					<rect x="169.89" y="398.22" transform="matrix(-1 -1.224647e-16 1.224647e-16 -1 342.429 801.1239)" class="st28" width="2.65" height="4.67"/>
				
					<rect x="172.68" y="399.62" transform="matrix(-1 -1.224647e-16 1.224647e-16 -1 348.0018 802.5171)" class="st28" width="2.65" height="3.28"/>
				<path class="st19" d="M167.81,408.42l1.93,3.38h20.25l1.97-4.87C185.99,407.95,174.56,409.58,167.81,408.42z"/>
			</g>
		</g>
		<g>
			<ellipse class="st21" cx="492.93" cy="260.45" rx="15.93" ry="3.78"/>
			<g>
				<g>
					<rect x="503.8" y="245.91" class="st19" width="0.41" height="10.47"/>
					<polygon class="st28" points="506.81,247.12 504.21,246.02 504.21,248.23 					"/>
				</g>
				<polygon class="st40" points="486.94,255.76 486.94,247.61 495.78,247.61 495.78,252.65 502.92,252.65 502.92,256.51 				"/>
				<path class="st37" d="M506.59,254.88l-1.88,3.29l-1.93,3.38h-20.25l-1.97-4.87l-1.63-4.02
					C488.85,256.95,506.59,254.88,506.59,254.88z"/>
				<circle class="st17" cx="491.24" cy="250.46" r="1.68"/>
				<rect x="499.98" y="247.98" class="st28" width="2.65" height="4.67"/>
				<rect x="497.19" y="249.37" class="st28" width="2.65" height="3.28"/>
				<path class="st19" d="M504.71,258.17l-1.93,3.38h-20.25l-1.97-4.87C486.53,257.7,497.95,259.34,504.71,258.17z"/>
			</g>
		</g>
		<g>
			<ellipse class="st21" cx="464.1" cy="401.26" rx="28.53" ry="3.78"/>
			<g>
				<polygon class="st46" points="481.34,394.81 449.55,394.81 457.79,388.65 474.94,388.65 475.79,389.47 477.32,390.94 				"/>
				<path class="st37" d="M491.38,391.85c-0.12,0.47-0.26,0.93-0.42,1.37c-2.05,5.68-7.18,8.54-7.18,8.54h-41.93v-2.87l3.14-2.88
					l1.98-1.82h14.95l5.25-2.62L491.38,391.85z"/>
				<polygon class="st17" points="477.32,390.94 460.96,390.94 460.96,389.47 475.79,389.47 				"/>
				<path class="st47" d="M490.96,393.23c-2.05,5.68-7.18,8.54-7.18,8.54h-41.93v-2.87l3.14-2.88h18.35l4.71-2.8H490.96z"/>
			</g>
		</g>
		<g>
			<ellipse class="st21" cx="114.78" cy="245.26" rx="42.79" ry="3.78"/>
			<g>
				<polygon class="st37" points="137.61,236.59 137.61,231.3 146.04,231.3 148.06,236.17 				"/>
				<polygon class="st47" points="151.19,235.34 144.97,242.23 140.89,246.76 87.54,246.76 85.89,242.23 82.11,231.85 95.2,231.85 
					96.6,235.34 				"/>
				<polygon class="st48" points="137.61,226.42 137.61,231.3 145.34,231.3 144.09,226.42 				"/>
				<polygon class="st37" points="138.9,226.42 138.9,224.33 140.78,224.33 142.49,226.42 				"/>
				<g>
					<rect x="138.69" y="232.11" class="st17" width="1.43" height="2.58"/>
					<rect x="141.07" y="232.11" class="st17" width="1.43" height="2.58"/>
					<rect x="143.45" y="232.11" class="st17" width="1.43" height="2.58"/>
				</g>
				<g>
					<rect x="138.18" y="227.77" class="st17" width="1.34" height="2.58"/>
					<rect x="140.4" y="227.77" class="st17" width="1.34" height="2.58"/>
					<rect x="142.63" y="227.77" class="st17" width="1.34" height="2.58"/>
				</g>
				<g>
					<rect x="98.13" y="229.06" class="st28" width="10.38" height="6.28"/>
					<rect x="109.6" y="229.06" class="st28" width="10.38" height="6.28"/>
					<rect x="121.06" y="229.06" class="st28" width="10.38" height="6.28"/>
				</g>
				<g>
					<rect x="98.13" y="222.58" class="st19" width="10.38" height="6.28"/>
					<rect x="109.6" y="222.58" class="st19" width="10.38" height="6.28"/>
					<rect x="121.06" y="222.58" class="st19" width="10.38" height="6.28"/>
				</g>
				<g>
					<rect x="94.63" y="215.05" class="st47" width="0.56" height="17.06"/>
					<path class="st47" d="M94.91,220.71L94.91,220.71c-0.58,0-1.04-0.47-1.04-1.04v-1.04h2.09v1.04
						C95.96,220.24,95.49,220.71,94.91,220.71z"/>
				</g>
				<g>
					<rect x="148.06" y="225.1" class="st47" width="0.42" height="10.24"/>
					<polygon class="st28" points="151.37,226.57 148.48,225.33 148.48,227.82 					"/>
				</g>
				<polygon class="st37" points="144.97,242.23 140.89,246.76 87.54,246.76 85.89,242.23 				"/>
			</g>
		</g>
	</g>
	<g>
		<path class="st49" d="M70.53,480.41c0,0,1.37,3.34,3.97,3.34c2.49,0,4.7-0.97,5.55-3.34c0,0,0.42,3.59,3.7,3.36
			c3.28-0.23,4.55-3.63,4.55-3.63s1.54,4.27,4.95,4.27c3.53,0,4.98-1.74,5.94-3.53"/>
		<path class="st49" d="M143.25,334.67c0,0,1.37,3.34,3.97,3.34c2.49,0,4.7-0.97,5.55-3.34c0,0,0.42,3.59,3.7,3.36
			c3.28-0.23,4.55-3.63,4.55-3.63s1.54,4.27,4.95,4.27c3.53,0,4.98-1.74,5.94-3.53"/>
		<path class="st49" d="M52.1,204.79c0,0,1.37,3.34,3.97,3.34c2.49,0,4.7-0.97,5.55-3.34c0,0,0.42,3.59,3.7,3.36
			c3.28-0.23,4.55-3.63,4.55-3.63s1.54,4.27,4.95,4.27c3.53,0,4.98-1.74,5.94-3.53"/>
		<path class="st49" d="M243.43,143.58c0,0,1.37,3.34,3.97,3.34c2.49,0,4.7-0.97,5.55-3.34c0,0,0.42,3.59,3.7,3.36
			c3.28-0.23,4.55-3.63,4.55-3.63s1.54,4.27,4.95,4.27c3.53,0,4.98-1.74,5.94-3.53"/>
		<path class="st49" d="M558.93,195.57c0,0,1.37,3.34,3.97,3.34c2.49,0,4.7-0.97,5.55-3.34c0,0,0.42,3.59,3.7,3.36
			c3.28-0.23,4.55-3.63,4.55-3.63s1.54,4.27,4.95,4.27c3.53,0,4.98-1.74,5.94-3.53"/>
		<path class="st49" d="M544.59,347.76c0,0,1.37,3.34,3.97,3.34c2.49,0,4.7-0.97,5.55-3.34c0,0,0.42,3.59,3.7,3.36
			c3.28-0.23,4.55-3.63,4.55-3.63s1.54,4.27,4.95,4.27c3.53,0,4.98-1.74,5.94-3.53"/>
		<path class="st49" d="M472.61,473.3c0,0,1.37,3.34,3.97,3.34c2.49,0,4.7-0.97,5.55-3.34c0,0,0.42,3.59,3.7,3.36
			c3.28-0.23,4.55-3.63,4.55-3.63s1.54,4.27,4.95,4.27c3.53,0,4.98-1.74,5.94-3.53"/>
		<path class="st50" d="M651.14,432.9c0,0,0.85,2.07,2.46,2.07c1.54,0,2.92-0.6,3.44-2.07c0,0,0.26,2.23,2.3,2.08
			c2.03-0.14,2.82-2.25,2.82-2.25s0.95,2.65,3.07,2.65c2.19,0,3.09-1.08,3.68-2.19"/>
		<path class="st50" d="M382.14,395.52c0,0,0.85,2.07,2.46,2.07c1.54,0,2.92-0.6,3.44-2.07c0,0,0.26,2.23,2.3,2.08
			c2.03-0.14,2.82-2.25,2.82-2.25s0.95,2.65,3.07,2.65c2.19,0,3.09-1.08,3.68-2.19"/>
		<path class="st50" d="M499.97,109.51c0,0,0.85,2.07,2.46,2.07c1.54,0,2.92-0.6,3.44-2.07c0,0,0.26,2.23,2.3,2.08
			c2.03-0.14,2.82-2.25,2.82-2.25s0.95,2.65,3.07,2.65c2.19,0,3.09-1.08,3.68-2.19"/>
		<path class="st50" d="M328.27,93.24c0,0,0.85,2.07,2.46,2.07c1.54,0,2.92-0.6,3.44-2.07c0,0,0.26,2.23,2.3,2.08
			c2.03-0.14,2.82-2.25,2.82-2.25s0.95,2.65,3.07,2.65c2.19,0,3.09-1.08,3.68-2.19"/>
	</g>
	<g>
		<g>
			<path class="st37" d="M288.84,127.99h-17.05c0-4.71,3.82-8.53,8.53-8.53c0.91,0,1.78,0.14,2.6,0.4
				C286.36,120.97,288.84,124.19,288.84,127.99z"/>
			<path class="st37" d="M325.66,125.33c0,0.92-0.11,1.81-0.32,2.67H303.6c-0.21-0.86-0.32-1.75-0.32-2.67c0-3.6,1.7-6.81,4.35-8.85
				c1.89-1.47,4.27-2.34,6.84-2.34C320.65,114.14,325.66,119.15,325.66,125.33z"/>
			<path class="st37" d="M311.29,126.27c0,0.58-0.03,1.16-0.1,1.73h-29.61c-0.06-0.57-0.1-1.14-0.1-1.73c0-2.29,0.52-4.46,1.44-6.4
				c2.39-5.03,7.52-8.51,13.46-8.51c4.48,0,8.51,1.98,11.24,5.11C309.91,119.1,311.29,122.52,311.29,126.27z"/>
		</g>
		<g>
			<path class="st37" d="M441.49,319.07h-17.05c0-4.71,3.82-8.53,8.53-8.53c0.91,0,1.78,0.14,2.6,0.4
				C439,312.05,441.49,315.27,441.49,319.07z"/>
			<path class="st37" d="M478.31,316.4c0,0.92-0.11,1.81-0.32,2.67h-21.74c-0.21-0.86-0.32-1.75-0.32-2.67c0-3.6,1.7-6.81,4.35-8.85
				c1.89-1.47,4.27-2.34,6.84-2.34C473.3,305.21,478.31,310.22,478.31,316.4z"/>
			<path class="st37" d="M463.93,317.34c0,0.58-0.03,1.16-0.1,1.73h-29.61c-0.06-0.57-0.1-1.14-0.1-1.73c0-2.29,0.52-4.46,1.44-6.4
				c2.39-5.03,7.52-8.51,13.46-8.51c4.48,0,8.51,1.98,11.24,5.11C462.55,310.18,463.93,313.6,463.93,317.34z"/>
		</g>
		<g>
			<path class="st37" d="M637.74,269.4h-13.51c0-3.73,3.03-6.75,6.75-6.75c0.72,0,1.41,0.11,2.06,0.32
				C635.77,263.84,637.74,266.39,637.74,269.4z"/>
			<path class="st37" d="M666.91,267.29c0,0.73-0.09,1.44-0.25,2.11h-17.22c-0.17-0.68-0.25-1.39-0.25-2.11
				c0-2.85,1.35-5.39,3.44-7.01c1.5-1.16,3.38-1.85,5.42-1.85C662.94,258.43,666.91,262.39,666.91,267.29z"/>
			<path class="st37" d="M655.52,268.04c0,0.46-0.03,0.92-0.08,1.37h-23.46c-0.05-0.45-0.08-0.91-0.08-1.37
				c0-1.81,0.41-3.53,1.14-5.07c1.89-3.98,5.96-6.74,10.67-6.74c3.55,0,6.74,1.57,8.9,4.05
				C654.43,262.36,655.52,265.07,655.52,268.04z"/>
		</g>
		<g>
			<path class="st37" d="M574.19,173.04h-21.9c0-6.05,4.91-10.95,10.95-10.95c2.27,0,4.37,0.69,6.12,1.87
				C572.28,165.92,574.19,169.26,574.19,173.04z"/>
			<path class="st37" d="M618.85,169.62c0,1.17-0.12,2.32-0.34,3.43H584.7c-0.22-1.11-0.34-2.25-0.34-3.43
				c0-3.03,0.79-5.89,2.16-8.37c2.95-5.3,8.6-8.88,15.08-8.88c7.05,0,13.11,4.23,15.78,10.29
				C618.33,164.79,618.85,167.14,618.85,169.62z"/>
			<path class="st37" d="M630.99,173.04h-24.28c0.8-5.45,5.18-9.73,10.68-10.38c0.48-0.07,0.97-0.09,1.46-0.09
				C625.02,162.57,630.12,167.12,630.99,173.04z"/>
			<path class="st37" d="M594.89,173.04h-30.05c0.42-3.56,2.07-6.74,4.52-9.09c2.72-2.64,6.42-4.25,10.51-4.25
				c2.39,0,4.65,0.55,6.66,1.54C591.03,163.46,594.28,167.85,594.89,173.04z"/>
		</g>
		<g>
			<path class="st37" d="M77.21,379.27H56.3c0-5.78,4.68-10.46,10.46-10.46c2.16,0,4.17,0.65,5.84,1.78
				C75.38,372.48,77.21,375.66,77.21,379.27z"/>
			<path class="st37" d="M119.84,376c0,1.12-0.11,2.21-0.32,3.27H87.24c-0.21-1.06-0.32-2.15-0.32-3.27c0-2.9,0.75-5.62,2.07-7.99
				c2.81-5.06,8.21-8.47,14.4-8.47c6.73,0,12.52,4.04,15.07,9.82C119.35,371.39,119.84,373.64,119.84,376z"/>
			<path class="st37" d="M131.43,379.27h-23.18c0.76-5.2,4.94-9.29,10.19-9.91c0.46-0.06,0.92-0.09,1.4-0.09
				C125.73,369.27,130.61,373.62,131.43,379.27z"/>
			<path class="st37" d="M96.97,379.27H68.29c0.4-3.4,1.98-6.43,4.31-8.68c2.6-2.52,6.13-4.05,10.03-4.05
				c2.28,0,4.44,0.53,6.35,1.47C93.29,370.13,96.39,374.32,96.97,379.27z"/>
		</g>
	</g>
	<g>
		<g>
			<text transform="matrix(1 0 0 1 424.1731 115.0217)" class="st37 st51 st52">Keelung</text>
			<path class="st37" d="M441.77,118.87c0,0.95-0.77,1.72-1.72,1.72s-1.72-0.77-1.72-1.72s0.77-1.72,1.72-1.72
				S441.77,117.92,441.77,118.87z"/>
		</g>
		<g>
			<text transform="matrix(1 0 0 1 413.9779 153.6618)" class="st37 st51 st52">Taipei</text>
			<path class="st37" d="M427.33,157.51c0,0.95-0.77,1.72-1.72,1.72c-0.95,0-1.72-0.77-1.72-1.72s0.77-1.72,1.72-1.72
				C426.56,155.79,427.33,156.56,427.33,157.51z"/>
		</g>
		<g>
			<text transform="matrix(1 0 0 1 334.9388 200.1879)" class="st37 st51 st52">Taichung</text>
			<path class="st37" d="M354.54,204.03c0,0.95-0.77,1.72-1.72,1.72s-1.72-0.77-1.72-1.72s0.77-1.72,1.72-1.72
				S354.54,203.09,354.54,204.03z"/>
		</g>
		<g>
			<text transform="matrix(1 0 0 1 252.6918 363.03)" class="st37 st51 st52">Tainan</text>
			<path class="st37" d="M267.57,366.88c0,0.95-0.77,1.72-1.72,1.72c-0.95,0-1.72-0.77-1.72-1.72c0-0.95,0.77-1.72,1.72-1.72
				C266.8,365.16,267.57,365.93,267.57,366.88z"/>
		</g>
		<g>
			<text transform="matrix(1 0 0 1 288.0387 383.0501)" class="st37 st51 st52">Kaohsiung</text>
			<path class="st37" d="M310.05,386.9c0,0.95-0.77,1.72-1.72,1.72c-0.95,0-1.72-0.77-1.72-1.72c0-0.95,0.77-1.72,1.72-1.72
				C309.29,385.18,310.05,385.95,310.05,386.9z"/>
		</g>
	</g>
</g>
</svg>
